<svg xmlns="http://www.w3.org/2000/svg" width="1590" height="182" viewBox="0 0 1590 182" style="--bg:#FFFFFF;--fg:#27272A;background:var(--bg)"><style>@import url('https://fonts.googleapis.com/css2?family=Inter:wght@400;500;600;700&amp;display=swap');text{font-family:'Inter',system-ui,sans-serif}svg{--_text:var(--fg);--_text-sec:var(--muted,color-mix(in srgb,var(--fg) 60%,var(--bg)));--_text-muted:var(--muted,color-mix(in srgb,var(--fg) 40%,var(--bg)));--_text-faint:color-mix(in srgb,var(--fg) 25%,var(--bg));--_line:var(--line,color-mix(in srgb,var(--fg) 30%,var(--bg)));--_arrow:var(--accent,color-mix(in srgb,var(--fg) 50%,var(--bg)));--_node-fill:var(--surface,color-mix(in srgb,var(--fg) 3%,var(--bg)));--_node-stroke:var(--border,color-mix(in srgb,var(--fg) 20%,var(--bg)));--_group-fill:var(--bg);--_group-hdr:color-mix(in srgb,var(--fg) 5%,var(--bg));--_inner-stroke:color-mix(in srgb,var(--fg) 12%,var(--bg));--_key-badge:color-mix(in srgb,var(--fg) 10%,var(--bg));}</style><defs><marker id="arrowhead" markerWidth="8" markerHeight="4.8" refX="8" refY="2.4" orient="auto"><polygon points="0 0, 8 2.4, 0 4.8" fill="var(--_arrow)" /></marker><marker id="arrowhead-start" markerWidth="8" markerHeight="4.8" refX="0" refY="2.4" orient="auto-start-reverse"><polygon points="8 0, 0 2.4, 8 4.8" fill="var(--_arrow)" /></marker><marker id="seq-arrow" markerWidth="8" markerHeight="4.8" refX="8" refY="2.4" orient="auto-start-reverse"><polygon points="0 0, 8 2.4, 0 4.8" fill="var(--_arrow)" /></marker><marker id="seq-arrow-open" markerWidth="8" markerHeight="4.8" refX="8" refY="2.4" orient="auto-start-reverse"><polyline points="0 0, 8 2.4, 0 4.8" fill="none" stroke="var(--_arrow)" stroke-width="1" /></marker><marker id="class-arrow" markerWidth="8" markerHeight="6" refX="8" refY="3" orient="auto-start-reverse"><polyline points="0 0, 8 3, 0 6" fill="none" stroke="var(--_arrow)" stroke-width="1.5" /></marker><marker id="class-inherit" markerWidth="12" markerHeight="10" refX="12" refY="5" orient="auto-start-reverse"><polygon points="0 0, 12 5, 0 10" fill="var(--bg)" stroke="var(--_arrow)" stroke-width="1.5" /></marker><marker id="class-composition" markerWidth="12" markerHeight="10" refX="0" refY="5" orient="auto-start-reverse"><polygon points="6 0, 12 5, 6 10, 0 5" fill="var(--_arrow)" stroke="var(--_arrow)" stroke-width="1" /></marker><marker id="class-aggregation" markerWidth="12" markerHeight="10" refX="0" refY="5" orient="auto-start-reverse"><polygon points="6 0, 12 5, 6 10, 0 5" fill="var(--bg)" stroke="var(--_arrow)" stroke-width="1.5" /></marker><style>.node-shape{fill:var(--_node-fill);stroke:var(--_node-stroke);stroke-width:1.5}.node-header{fill:var(--_group-hdr);stroke:var(--_node-stroke);stroke-width:1}.node-divider{stroke:var(--_node-stroke);stroke-width:1}.edge{fill:none;stroke:var(--_line);stroke-width:0.75}.lifeline{fill:none;stroke:var(--_line);stroke-width:0.75;stroke-dasharray:6 4}.label{fill:var(--_text);font-size:13px}.class-header-text{font-weight:700}.class-row{fill:var(--_text-muted);font-size:11px}.edge-endpoint{fill:var(--_text-muted);font-size:11px}.edge-label-bg{fill:var(--bg);stroke:var(--_inner-stroke);stroke-width:0.5}.edge-label{fill:var(--_text-muted);font-size:11px}.state-start{fill:var(--_text)}.sequence-actor{fill:none;stroke:var(--_line);stroke-width:1.5}.sequence-block{fill:none;stroke:var(--_node-stroke);stroke-width:1}.sequence-block-tab{fill:var(--_group-hdr);stroke:var(--_node-stroke);stroke-width:1}.sequence-block-label{fill:var(--_text-sec);font-size:11px;font-weight:600}.sequence-divider{stroke:var(--_line);stroke-width:0.75;stroke-dasharray:6 4}.sequence-divider-label{fill:var(--_text-muted);font-size:11px}.sequence-activation{fill:var(--_node-fill);stroke:var(--_node-stroke);stroke-width:0.75}.sequence-note{fill:var(--_group-hdr);stroke:var(--_node-stroke);stroke-width:0.75}.sequence-note-fold{fill:var(--_inner-stroke)}.sequence-note-text{fill:var(--_text-muted);font-size:11px}</style></defs><rect width="1590" height="182" fill="var(--bg)" /><polyline class="edge" points="136,110 170,110" marker-end="url(#arrowhead)" /><polyline class="edge" points="250,110 300,110" marker-end="url(#arrowhead)" /><polyline class="edge" points="380,110 430,110" marker-end="url(#arrowhead)" /><polyline class="edge" points="510,110 560,110" marker-end="url(#arrowhead)" /><polyline class="edge" points="620,110 690,110" marker-end="url(#arrowhead)" /><polyline class="edge" points="794,110 820,110" marker-end="url(#arrowhead)" /><polyline class="edge" points="884,110 950,110" marker-end="url(#arrowhead)" /><polyline class="edge" points="1030,110 1080,110" marker-end="url(#arrowhead)" /><polyline class="edge" points="1168,110 1210,110" marker-end="url(#arrowhead)" /><polyline class="edge" points="1280,110 1340,110" marker-end="url(#arrowhead)" /><polyline class="edge" points="1436,110 1470,110" marker-end="url(#arrowhead)" /><rect class="node-shape" x="40" y="88" width="96" height="44" rx="0" ry="0" /><text class="label" x="88" y="110" text-anchor="middle" dominant-baseline="middle">Rectangle</text><rect class="node-shape" x="170" y="88" width="80" height="44" rx="6" ry="6" /><text class="label" x="210" y="110" text-anchor="middle" dominant-baseline="middle">Rounded</text><polygon class="node-shape" points="340,88 380,110 340,132 300,110" /><text class="label" x="340" y="110" text-anchor="middle" dominant-baseline="middle">Diamond</text><rect class="node-shape" x="430" y="88" width="80" height="44" rx="22" ry="22" /><text class="label" x="470" y="110" text-anchor="middle" dominant-baseline="middle">Stadium</text><circle class="node-shape" cx="590" cy="110" r="30" /><text class="label" x="590" y="110" text-anchor="middle" dominant-baseline="middle">Circle</text><rect class="node-shape" x="690" y="88" width="104" height="44" rx="0" ry="0" /><line class="node-shape" x1="698" y1="88" x2="698" y2="132" /><line class="node-shape" x1="786" y1="88" x2="786" y2="132" /><text class="label" x="742" y="110" text-anchor="middle" dominant-baseline="middle">Subroutine</text><circle class="node-shape" cx="852" cy="110" r="32" /><circle class="node-shape" cx="852" cy="110" r="27" /><text class="label" x="852" y="110" text-anchor="middle" dominant-baseline="middle">DoubleCircle</text><polygon class="node-shape" points="961,88 1019,88 1030,110 1019,132 961,132 950,110" /><text class="label" x="990" y="110" text-anchor="middle" dominant-baseline="middle">Hexagon</text><rect class="node-shape" x="1080" y="95" width="88" height="30" rx="0" stroke="none" /><line class="node-shape" x1="1080" y1="95" x2="1080" y2="125" /><line class="node-shape" x1="1168" y1="95" x2="1168" y2="125" /><ellipse class="node-shape" cx="1124" cy="95" rx="44" ry="7" /><ellipse class="node-shape" cx="1124" cy="125" rx="44" ry="7" /><text class="label" x="1124" y="110" text-anchor="middle" dominant-baseline="middle">Cylinder</text><polygon class="node-shape" points="1222,88 1280,88 1280,132 1222,132 1210,110" /><text class="label" x="1245" y="110" text-anchor="middle" dominant-baseline="middle">Flag</text><polygon class="node-shape" points="1354,88 1422,88 1436,132 1340,132" /><text class="label" x="1388" y="110" text-anchor="middle" dominant-baseline="middle">Trapezoid</text><polygon class="node-shape" points="1470,88 1550,88 1538,132 1482,132" /><text class="label" x="1510" y="110" text-anchor="middle" dominant-baseline="middle">TrapAlt</text></svg>