<svg xmlns="http://www.w3.org/2000/svg" width="1604" height="209" viewBox="0 0 1604 209" style="--bg:#FFFFFF;--fg:#27272A;background:var(--bg)"><style>@import url('https://fonts.googleapis.com/css2?family=Inter:wght@400;500;600;700&amp;display=swap');text{font-family:'Inter',system-ui,sans-serif}svg{--_text:var(--fg);--_text-sec:var(--muted,color-mix(in srgb,var(--fg) 60%,var(--bg)));--_text-muted:var(--muted,color-mix(in srgb,var(--fg) 40%,var(--bg)));--_text-faint:color-mix(in srgb,var(--fg) 25%,var(--bg));--_line:var(--line,color-mix(in srgb,var(--fg) 30%,var(--bg)));--_arrow:var(--accent,color-mix(in srgb,var(--fg) 50%,var(--bg)));--_node-fill:var(--surface,color-mix(in srgb,var(--fg) 3%,var(--bg)));--_node-stroke:var(--border,color-mix(in srgb,var(--fg) 20%,var(--bg)));--_group-fill:var(--bg);--_group-hdr:color-mix(in srgb,var(--fg) 5%,var(--bg));--_inner-stroke:color-mix(in srgb,var(--fg) 12%,var(--bg));--_key-badge:color-mix(in srgb,var(--fg) 10%,var(--bg));}</style><defs><marker id="arrowhead" markerWidth="8" markerHeight="4.8" refX="8" refY="2.4" orient="auto"><polygon points="0 0, 8 2.4, 0 4.8" fill="var(--_arrow)" /></marker><marker id="arrowhead-start" markerWidth="8" markerHeight="4.8" refX="0" refY="2.4" orient="auto-start-reverse"><polygon points="8 0, 0 2.4, 8 4.8" fill="var(--_arrow)" /></marker><marker id="seq-arrow" markerWidth="8" markerHeight="4.8" refX="8" refY="2.4" orient="auto-start-reverse"><polygon points="0 0, 8 2.4, 0 4.8" fill="var(--_arrow)" /></marker><marker id="seq-arrow-open" markerWidth="8" markerHeight="4.8" refX="8" refY="2.4" orient="auto-start-reverse"><polyline points="0 0, 8 2.4, 0 4.8" fill="none" stroke="var(--_arrow)" stroke-width="1" /></marker><marker id="class-arrow" markerWidth="8" markerHeight="6" refX="8" refY="3" orient="auto-start-reverse"><polyline points="0 0, 8 3, 0 6" fill="none" stroke="var(--_arrow)" stroke-width="1.5" /></marker><marker id="class-inherit" markerWidth="12" markerHeight="10" refX="12" refY="5" orient="auto-start-reverse"><polygon points="0 0, 12 5, 0 10" fill="var(--bg)" stroke="var(--_arrow)" stroke-width="1.5" /></marker><marker id="class-composition" markerWidth="12" markerHeight="10" refX="0" refY="5" orient="auto-start-reverse"><polygon points="6 0, 12 5, 6 10, 0 5" fill="var(--_arrow)" stroke="var(--_arrow)" stroke-width="1" /></marker><marker id="class-aggregation" markerWidth="12" markerHeight="10" refX="0" refY="5" orient="auto-start-reverse"><polygon points="6 0, 12 5, 6 10, 0 5" fill="var(--bg)" stroke="var(--_arrow)" stroke-width="1.5" /></marker><style>.node-shape{fill:var(--_node-fill);stroke:var(--_node-stroke);stroke-width:1.5}.node-header{fill:var(--_group-hdr);stroke:var(--_node-stroke);stroke-width:1}.node-divider{stroke:var(--_node-stroke);stroke-width:1}.edge{fill:none;stroke:var(--_line);stroke-width:0.75}.lifeline{fill:none;stroke:var(--_line);stroke-width:0.75;stroke-dasharray:6 4}.label{fill:var(--_text);font-size:13px}.class-header-text{font-weight:700}.class-row{fill:var(--_text-muted);font-size:11px}.edge-endpoint{fill:var(--_text-muted);font-size:11px}.edge-label-bg{fill:var(--bg);stroke:var(--_inner-stroke);stroke-width:0.5}.edge-label{fill:var(--_text-muted);font-size:11px}.state-start{fill:var(--_text)}.sequence-actor{fill:none;stroke:var(--_line);stroke-width:1.5}.sequence-block{fill:none;stroke:var(--_node-stroke);stroke-width:1}.sequence-block-tab{fill:var(--_group-hdr);stroke:var(--_node-stroke);stroke-width:1}.sequence-block-label{fill:var(--_text-sec);font-size:11px;font-weight:600}.sequence-divider{stroke:var(--_line);stroke-width:0.75;stroke-dasharray:6 4}.sequence-divider-label{fill:var(--_text-muted);font-size:11px}.sequence-activation{fill:var(--_node-fill);stroke:var(--_node-stroke);stroke-width:0.75}.sequence-note{fill:var(--_group-hdr);stroke:var(--_node-stroke);stroke-width:0.75}.sequence-note-fold{fill:var(--_inner-stroke)}.sequence-note-text{fill:var(--_text-muted);font-size:11px}</style></defs><rect width="1604" height="209" fill="var(--bg)" /><polyline class="edge" points="136,110 170,110" marker-end="url(#arrowhead)" /><polyline class="edge" points="250,110 300,110" marker-end="url(#arrowhead)" /><polyline class="edge" points="380,110 430,110" marker-end="url(#arrowhead)" /><polyline class="edge" points="510,110 560,110" marker-end="url(#arrowhead)" /><polyline class="edge" points="622,110 690,110" marker-end="url(#arrowhead)" /><polyline class="edge" points="794,110 820,110" marker-end="url(#arrowhead)" /><polyline class="edge" points="938,110 964,110" marker-end="url(#arrowhead)" /><polyline class="edge" points="1044,110 1094,110" marker-end="url(#arrowhead)" /><polyline class="edge" points="1182,110 1224,110" marker-end="url(#arrowhead)" /><polyline class="edge" points="1294,110 1361,110" marker-end="url(#arrowhead)" /><polyline class="edge" points="1443,110 1490,110" marker-end="url(#arrowhead)" /><rect class="node-shape" x="40" y="88" width="96" height="44" rx="0" ry="0" /><text class="label" x="88" y="110" text-anchor="middle" dominant-baseline="middle">Rectangle</text><rect class="node-shape" x="170" y="88" width="80" height="44" rx="6" ry="6" /><text class="label" x="210" y="110" text-anchor="middle" dominant-baseline="middle">Rounded</text><polygon class="node-shape" points="340,88 380,110 340,132 300,110" /><text class="label" x="340" y="110" text-anchor="middle" dominant-baseline="middle">Diamond</text><rect class="node-shape" x="430" y="88" width="80" height="44" rx="22" ry="22" /><text class="label" x="470" y="110" text-anchor="middle" dominant-baseline="middle">Stadium</text><circle class="node-shape" cx="591" cy="110" r="31" /><text class="label" x="591" y="110" text-anchor="middle" dominant-baseline="middle">Circle</text><rect class="node-shape" x="690" y="88" width="104" height="44" rx="0" ry="0" /><line class="node-shape" x1="698" y1="88" x2="698" y2="132" /><line class="node-shape" x1="786" y1="88" x2="786" y2="132" /><text class="label" x="742" y="110" text-anchor="middle" dominant-baseline="middle">Subroutine</text><circle class="node-shape" cx="879" cy="110" r="59" /><circle class="node-shape" cx="879" cy="110" r="54" /><text class="label" x="879" y="110" text-anchor="middle" dominant-baseline="middle">DoubleCircle</text><polygon class="node-shape" points="975,88 1033,88 1044,110 1033,132 975,132 964,110" /><text class="label" x="1004" y="110" text-anchor="middle" dominant-baseline="middle">Hexagon</text><rect class="node-shape" x="1094" y="95" width="88" height="30" rx="0" stroke="none" /><line class="node-shape" x1="1094" y1="95" x2="1094" y2="125" /><line class="node-shape" x1="1182" y1="95" x2="1182" y2="125" /><ellipse class="node-shape" cx="1138" cy="95" rx="44" ry="7" /><ellipse class="node-shape" cx="1138" cy="125" rx="44" ry="7" /><text class="label" x="1138" y="110" text-anchor="middle" dominant-baseline="middle">Cylinder</text><polygon class="node-shape" points="1236,88 1294,88 1294,132 1236,132 1224,110" /><text class="label" x="1259" y="110" text-anchor="middle" dominant-baseline="middle">Flag</text><polygon class="node-shape" points="1368,88 1436,88 1450,132 1354,132" /><text class="label" x="1402" y="110" text-anchor="middle" dominant-baseline="middle">Trapezoid</text><polygon class="node-shape" points="1484,88 1564,88 1552,132 1496,132" /><text class="label" x="1524" y="110" text-anchor="middle" dominant-baseline="middle">TrapAlt</text></svg>