<svg xmlns="http://www.w3.org/2000/svg" width="1657" height="209" viewBox="0 0 1657 209" style="--bg:#FFFFFF;--fg:#27272A;background:var(--bg)"><style>@import url('https://fonts.googleapis.com/css2?family=Inter:wght@400;500;600;700&amp;display=swap');text{font-family:'Inter',system-ui,sans-serif}svg{--_text:var(--fg);--_text-sec:var(--muted,color-mix(in srgb,var(--fg) 60%,var(--bg)));--_text-muted:var(--muted,color-mix(in srgb,var(--fg) 40%,var(--bg)));--_text-faint:color-mix(in srgb,var(--fg) 25%,var(--bg));--_line:var(--line,color-mix(in srgb,var(--fg) 30%,var(--bg)));--_arrow:var(--accent,color-mix(in srgb,var(--fg) 50%,var(--bg)));--_node-fill:var(--surface,color-mix(in srgb,var(--fg) 3%,var(--bg)));--_node-stroke:var(--border,color-mix(in srgb,var(--fg) 20%,var(--bg)));--_group-fill:var(--bg);--_group-hdr:color-mix(in srgb,var(--fg) 5%,var(--bg));--_inner-stroke:color-mix(in srgb,var(--fg) 12%,var(--bg));--_key-badge:color-mix(in srgb,var(--fg) 10%,var(--bg));}</style><defs><marker id="arrowhead" markerWidth="8" markerHeight="4.8" refX="8" refY="2.4" orient="auto"><polygon points="0 0, 8 2.4, 0 4.8" fill="var(--_arrow)" /></marker><marker id="arrowhead-start" markerWidth="8" markerHeight="4.8" refX="0" refY="2.4" orient="auto-start-reverse"><polygon points="8 0, 0 2.4, 8 4.8" fill="var(--_arrow)" /></marker><marker id="seq-arrow" markerWidth="8" markerHeight="4.8" refX="8" refY="2.4" orient="auto-start-reverse"><polygon points="0 0, 8 2.4, 0 4.8" fill="var(--_arrow)" /></marker><marker id="seq-arrow-open" markerWidth="8" markerHeight="4.8" refX="8" refY="2.4" orient="auto-start-reverse"><polyline points="0 0, 8 2.4, 0 4.8" fill="none" stroke="var(--_arrow)" stroke-width="1" /></marker><marker id="class-arrow" markerWidth="8" markerHeight="6" refX="8" refY="3" orient="auto-start-reverse"><polyline points="0 0, 8 3, 0 6" fill="none" stroke="var(--_arrow)" stroke-width="1.5" /></marker><marker id="class-inherit" markerWidth="12" markerHeight="10" refX="12" refY="5" orient="auto-start-reverse"><polygon points="0 0, 12 5, 0 10" fill="var(--bg)" stroke="var(--_arrow)" stroke-width="1.5" /></marker><marker id="class-composition" markerWidth="12" markerHeight="10" refX="0" refY="5" orient="auto-start-reverse"><polygon points="6 0, 12 5, 6 10, 0 5" fill="var(--_arrow)" stroke="var(--_arrow)" stroke-width="1" /></marker><marker id="class-aggregation" markerWidth="12" markerHeight="10" refX="0" refY="5" orient="auto-start-reverse"><polygon points="6 0, 12 5, 6 10, 0 5" fill="var(--bg)" stroke="var(--_arrow)" stroke-width="1.5" /></marker><style>.node-shape{fill:var(--_node-fill);stroke:var(--_node-stroke);stroke-width:1.5}.node-header{fill:var(--_group-hdr);stroke:var(--_node-stroke);stroke-width:1}.node-divider{stroke:var(--_node-stroke);stroke-width:1}.edge{fill:none;stroke:var(--_line);stroke-width:0.75}.lifeline{fill:none;stroke:var(--_line);stroke-width:0.75;stroke-dasharray:6 4}.label{fill:var(--_text);font-size:13px}.class-header-text{font-weight:700}.class-row{fill:var(--_text-muted);font-size:11px}.edge-endpoint{fill:var(--_text-muted);font-size:11px}.edge-label-bg{fill:var(--bg);stroke:var(--_inner-stroke);stroke-width:0.5}.edge-label{fill:var(--_text-muted);font-size:11px}.state-start{fill:var(--_text)}.sequence-actor{fill:none;stroke:var(--_line);stroke-width:1.5}.sequence-block{fill:none;stroke:var(--_node-stroke);stroke-width:1}.sequence-block-tab{fill:var(--_group-hdr);stroke:var(--_node-stroke);stroke-width:1}.sequence-block-label{fill:var(--_text-sec);font-size:11px;font-weight:600}.sequence-divider{stroke:var(--_line);stroke-width:0.75;stroke-dasharray:6 4}.sequence-divider-label{fill:var(--_text-muted);font-size:11px}.sequence-activation{fill:var(--_node-fill);stroke:var(--_node-stroke);stroke-width:0.75}.sequence-note{fill:var(--_group-hdr);stroke:var(--_node-stroke);stroke-width:0.75}.sequence-note-fold{fill:var(--_inner-stroke)}.sequence-note-text{fill:var(--_text-muted);font-size:11px}</style></defs><rect width="1657" height="209" fill="var(--bg)" /><polyline class="edge" points="136,110 179,110" marker-end="url(#arrowhead)" /><polyline class="edge" points="259,110 309,110" marker-end="url(#arrowhead)" /><polyline class="edge" points="389,110 439,110" marker-end="url(#arrowhead)" /><polyline class="edge" points="519,110 569,110" marker-end="url(#arrowhead)" /><polyline class="edge" points="631,110 699,110" marker-end="url(#arrowhead)" /><polyline class="edge" points="803,110 846,110" marker-end="url(#arrowhead)" /><polyline class="edge" points="964,110 1007,110" marker-end="url(#arrowhead)" /><polyline class="edge" points="1087,110 1137,110" marker-end="url(#arrowhead)" /><polyline class="edge" points="1225,110 1268,110" marker-end="url(#arrowhead)" /><polyline class="edge" points="1338,110 1405,110" marker-end="url(#arrowhead)" /><polyline class="edge" points="1487,110 1543,110" marker-end="url(#arrowhead)" /><rect class="node-shape" x="40" y="88" width="96" height="44" rx="0" ry="0" /><text class="label" x="88" y="110" text-anchor="middle" dominant-baseline="middle">Rectangle</text><rect class="node-shape" x="179" y="88" width="80" height="44" rx="6" ry="6" /><text class="label" x="219" y="110" text-anchor="middle" dominant-baseline="middle">Rounded</text><polygon class="node-shape" points="349,88 389,110 349,132 309,110" /><text class="label" x="349" y="110" text-anchor="middle" dominant-baseline="middle">Diamond</text><rect class="node-shape" x="439" y="88" width="80" height="44" rx="22" ry="22" /><text class="label" x="479" y="110" text-anchor="middle" dominant-baseline="middle">Stadium</text><circle class="node-shape" cx="600" cy="110" r="31" /><text class="label" x="600" y="110" text-anchor="middle" dominant-baseline="middle">Circle</text><rect class="node-shape" x="699" y="88" width="104" height="44" rx="0" ry="0" /><line class="node-shape" x1="707" y1="88" x2="707" y2="132" /><line class="node-shape" x1="795" y1="88" x2="795" y2="132" /><text class="label" x="751" y="110" text-anchor="middle" dominant-baseline="middle">Subroutine</text><circle class="node-shape" cx="905" cy="110" r="59" /><circle class="node-shape" cx="905" cy="110" r="54" /><text class="label" x="905" y="110" text-anchor="middle" dominant-baseline="middle">DoubleCircle</text><polygon class="node-shape" points="1018,88 1076,88 1087,110 1076,132 1018,132 1007,110" /><text class="label" x="1047" y="110" text-anchor="middle" dominant-baseline="middle">Hexagon</text><rect class="node-shape" x="1137" y="95" width="88" height="30" rx="0" stroke="none" /><line class="node-shape" x1="1137" y1="95" x2="1137" y2="125" /><line class="node-shape" x1="1225" y1="95" x2="1225" y2="125" /><ellipse class="node-shape" cx="1181" cy="95" rx="44" ry="7" /><ellipse class="node-shape" cx="1181" cy="125" rx="44" ry="7" /><text class="label" x="1181" y="110" text-anchor="middle" dominant-baseline="middle">Cylinder</text><polygon class="node-shape" points="1280,88 1338,88 1338,132 1280,132 1268,110" /><text class="label" x="1303" y="110" text-anchor="middle" dominant-baseline="middle">Flag</text><polygon class="node-shape" points="1412,88 1480,88 1494,132 1398,132" /><text class="label" x="1446" y="110" text-anchor="middle" dominant-baseline="middle">Trapezoid</text><polygon class="node-shape" points="1537,88 1617,88 1605,132 1549,132" /><text class="label" x="1577" y="110" text-anchor="middle" dominant-baseline="middle">TrapAlt</text></svg>