<svg xmlns="http://www.w3.org/2000/svg" width="242" height="500" viewBox="0 0 242 500" style="--bg:#FFFFFF;--fg:#27272A;background:var(--bg)"><style>@import url('https://fonts.googleapis.com/css2?family=Inter:wght@400;500;600;700&amp;display=swap');text{font-family:'Inter',system-ui,sans-serif}svg{--_text:var(--fg);--_text-sec:var(--muted,color-mix(in srgb,var(--fg) 60%,var(--bg)));--_text-muted:var(--muted,color-mix(in srgb,var(--fg) 40%,var(--bg)));--_text-faint:color-mix(in srgb,var(--fg) 25%,var(--bg));--_line:var(--line,color-mix(in srgb,var(--fg) 30%,var(--bg)));--_arrow:var(--accent,color-mix(in srgb,var(--fg) 50%,var(--bg)));--_node-fill:var(--surface,color-mix(in srgb,var(--fg) 3%,var(--bg)));--_node-stroke:var(--border,color-mix(in srgb,var(--fg) 20%,var(--bg)));--_group-fill:var(--bg);--_group-hdr:color-mix(in srgb,var(--fg) 5%,var(--bg));--_inner-stroke:color-mix(in srgb,var(--fg) 12%,var(--bg));--_key-badge:color-mix(in srgb,var(--fg) 10%,var(--bg));}</style><defs><marker id="arrowhead" markerWidth="8" markerHeight="4.8" refX="8" refY="2.4" orient="auto"><polygon points="0 0, 8 2.4, 0 4.8" fill="var(--_arrow)" /></marker><marker id="arrowhead-start" markerWidth="8" markerHeight="4.8" refX="0" refY="2.4" orient="auto-start-reverse"><polygon points="8 0, 0 2.4, 8 4.8" fill="var(--_arrow)" /></marker><marker id="seq-arrow" markerWidth="8" markerHeight="4.8" refX="8" refY="2.4" orient="auto-start-reverse"><polygon points="0 0, 8 2.4, 0 4.8" fill="var(--_arrow)" /></marker><marker id="seq-arrow-open" markerWidth="8" markerHeight="4.8" refX="8" refY="2.4" orient="auto-start-reverse"><polyline points="0 0, 8 2.4, 0 4.8" fill="none" stroke="var(--_arrow)" stroke-width="1" /></marker><marker id="class-arrow" markerWidth="8" markerHeight="6" refX="8" refY="3" orient="auto-start-reverse"><polyline points="0 0, 8 3, 0 6" fill="none" stroke="var(--_arrow)" stroke-width="1.5" /></marker><marker id="class-inherit" markerWidth="12" markerHeight="10" refX="12" refY="5" orient="auto-start-reverse"><polygon points="0 0, 12 5, 0 10" fill="var(--bg)" stroke="var(--_arrow)" stroke-width="1.5" /></marker><marker id="class-composition" markerWidth="12" markerHeight="10" refX="0" refY="5" orient="auto-start-reverse"><polygon points="6 0, 12 5, 6 10, 0 5" fill="var(--_arrow)" stroke="var(--_arrow)" stroke-width="1" /></marker><marker id="class-aggregation" markerWidth="12" markerHeight="10" refX="0" refY="5" orient="auto-start-reverse"><polygon points="6 0, 12 5, 6 10, 0 5" fill="var(--bg)" stroke="var(--_arrow)" stroke-width="1.5" /></marker><style>.node-shape{fill:var(--_node-fill);stroke:var(--_node-stroke);stroke-width:1.5}.node-header{fill:var(--_group-hdr);stroke:var(--_node-stroke);stroke-width:1}.node-divider{stroke:var(--_node-stroke);stroke-width:1}.edge{fill:none;stroke:var(--_line);stroke-width:0.75}.lifeline{fill:none;stroke:var(--_line);stroke-width:0.75;stroke-dasharray:6 4}.label{fill:var(--_text);font-size:13px}.class-header-text{font-weight:700}.class-row{fill:var(--_text-muted);font-size:11px}.edge-endpoint{fill:var(--_text-muted);font-size:11px}.edge-label-bg{fill:var(--bg);stroke:var(--_inner-stroke);stroke-width:0.5}.edge-label{fill:var(--_text-muted);font-size:11px}.state-start{fill:var(--_text)}.sequence-actor{fill:none;stroke:var(--_line);stroke-width:1.5}.sequence-block{fill:none;stroke:var(--_node-stroke);stroke-width:1}.sequence-block-tab{fill:var(--_group-hdr);stroke:var(--_node-stroke);stroke-width:1}.sequence-block-label{fill:var(--_text-sec);font-size:11px;font-weight:600}.sequence-divider{stroke:var(--_line);stroke-width:0.75;stroke-dasharray:6 4}.sequence-divider-label{fill:var(--_text-muted);font-size:11px}.sequence-activation{fill:var(--_node-fill);stroke:var(--_node-stroke);stroke-width:0.75}.sequence-note{fill:var(--_group-hdr);stroke:var(--_node-stroke);stroke-width:0.75}.sequence-note-fold{fill:var(--_inner-stroke)}.sequence-note-text{fill:var(--_text-muted);font-size:11px}</style></defs><rect width="242" height="500" fill="var(--bg)" /><path class="edge" d="M142 100 L68 100 Q58 100 58 110 L58 120 Q58 130 68 130 L142 130" /><text class="edge-endpoint" x="150" y="110" text-anchor="middle">||</text><text class="edge-endpoint" x="150" y="120" text-anchor="middle">||</text><rect class="edge-label-bg" x="41" y="102" width="34" height="27" rx="4" ry="4" /><text class="edge-label" x="58" y="115" text-anchor="middle" dominant-baseline="middle">one</text><path class="edge" d="M142 190 L64 190 Q54 190 54 200 L54 210 Q54 220 64 220 L142 220" /><text class="edge-endpoint" x="150" y="200" text-anchor="middle">||</text><text class="edge-endpoint" x="150" y="210" text-anchor="middle">o{</text><rect class="edge-label-bg" x="34" y="192" width="40" height="27" rx="4" ry="4" /><text class="edge-label" x="54" y="205" text-anchor="middle" dominant-baseline="middle">many</text><path class="edge" d="M142 280 L50 280 Q40 280 40 290 L40 300 Q40 310 50 310 L142 310" /><text class="edge-endpoint" x="150" y="290" text-anchor="middle">|o</text><text class="edge-endpoint" x="150" y="300" text-anchor="middle">|{</text><rect class="edge-label-bg" x="8" y="282" width="64" height="27" rx="4" ry="4" /><text class="edge-label" x="40" y="295" text-anchor="middle" dominant-baseline="middle">optional</text><path class="edge" d="M142 370 L61 370 Q51 370 51 380 L51 390 Q51 400 61 400 L142 400" /><text class="edge-endpoint" x="150" y="380" text-anchor="middle">}|</text><text class="edge-endpoint" x="150" y="390" text-anchor="middle">o{</text><rect class="edge-label-bg" x="28" y="372" width="46" height="27" rx="4" ry="4" /><text class="edge-label" x="51" y="385" text-anchor="middle" dominant-baseline="middle">mixed</text><rect class="node-shape" x="82" y="40" width="120" height="60" rx="0" /><rect class="node-header" x="82" y="40" width="120" height="32" rx="0" /><line class="node-divider" x1="82" y1="72" x2="202" y2="72" /><text class="label class-header-text" x="142" y="56" text-anchor="middle" dominant-baseline="middle">A</text><text class="class-row" x="142" y="86" text-anchor="middle">(no attributes)</text><rect class="node-shape" x="82" y="130" width="120" height="60" rx="0" /><rect class="node-header" x="82" y="130" width="120" height="32" rx="0" /><line class="node-divider" x1="82" y1="162" x2="202" y2="162" /><text class="label class-header-text" x="142" y="146" text-anchor="middle" dominant-baseline="middle">B</text><text class="class-row" x="142" y="176" text-anchor="middle">(no attributes)</text><rect class="node-shape" x="82" y="220" width="120" height="60" rx="0" /><rect class="node-header" x="82" y="220" width="120" height="32" rx="0" /><line class="node-divider" x1="82" y1="252" x2="202" y2="252" /><text class="label class-header-text" x="142" y="236" text-anchor="middle" dominant-baseline="middle">C</text><text class="class-row" x="142" y="266" text-anchor="middle">(no attributes)</text><rect class="node-shape" x="82" y="310" width="120" height="60" rx="0" /><rect class="node-header" x="82" y="310" width="120" height="32" rx="0" /><line class="node-divider" x1="82" y1="342" x2="202" y2="342" /><text class="label class-header-text" x="142" y="326" text-anchor="middle" dominant-baseline="middle">D</text><text class="class-row" x="142" y="356" text-anchor="middle">(no attributes)</text><rect class="node-shape" x="82" y="400" width="120" height="60" rx="0" /><rect class="node-header" x="82" y="400" width="120" height="32" rx="0" /><line class="node-divider" x1="82" y1="432" x2="202" y2="432" /><text class="label class-header-text" x="142" y="416" text-anchor="middle" dominant-baseline="middle">E</text><text class="class-row" x="142" y="446" text-anchor="middle">(no attributes)</text></svg>