<svg xmlns="http://www.w3.org/2000/svg" width="365" height="230" viewBox="0 0 365 230" style="--bg:#FFFFFF;--fg:#27272A;background:var(--bg)"><style>@import url('https://fonts.googleapis.com/css2?family=Inter:wght@400;500;600;700&amp;display=swap');text{font-family:'Inter',system-ui,sans-serif}svg{--_text:var(--fg);--_text-sec:var(--muted,color-mix(in srgb,var(--fg) 60%,var(--bg)));--_text-muted:var(--muted,color-mix(in srgb,var(--fg) 40%,var(--bg)));--_text-faint:color-mix(in srgb,var(--fg) 25%,var(--bg));--_line:var(--line,color-mix(in srgb,var(--fg) 30%,var(--bg)));--_arrow:var(--accent,color-mix(in srgb,var(--fg) 50%,var(--bg)));--_node-fill:var(--surface,color-mix(in srgb,var(--fg) 3%,var(--bg)));--_node-stroke:var(--border,color-mix(in srgb,var(--fg) 20%,var(--bg)));--_group-fill:var(--bg);--_group-hdr:color-mix(in srgb,var(--fg) 5%,var(--bg));--_inner-stroke:color-mix(in srgb,var(--fg) 12%,var(--bg));--_key-badge:color-mix(in srgb,var(--fg) 10%,var(--bg));}</style><defs><marker id="arrowhead" markerWidth="8" markerHeight="4.8" refX="8" refY="2.4" orient="auto"><polygon points="0 0, 8 2.4, 0 4.8" fill="var(--_arrow)" /></marker><marker id="arrowhead-start" markerWidth="8" markerHeight="4.8" refX="0" refY="2.4" orient="auto-start-reverse"><polygon points="8 0, 0 2.4, 8 4.8" fill="var(--_arrow)" /></marker><marker id="seq-arrow" markerWidth="8" markerHeight="4.8" refX="8" refY="2.4" orient="auto-start-reverse"><polygon points="0 0, 8 2.4, 0 4.8" fill="var(--_arrow)" /></marker><marker id="seq-arrow-open" markerWidth="8" markerHeight="4.8" refX="8" refY="2.4" orient="auto-start-reverse"><polyline points="0 0, 8 2.4, 0 4.8" fill="none" stroke="var(--_arrow)" stroke-width="1" /></marker><marker id="class-arrow" markerWidth="8" markerHeight="6" refX="8" refY="3" orient="auto-start-reverse"><polyline points="0 0, 8 3, 0 6" fill="none" stroke="var(--_arrow)" stroke-width="1.5" /></marker><marker id="class-inherit" markerWidth="12" markerHeight="10" refX="12" refY="5" orient="auto-start-reverse"><polygon points="0 0, 12 5, 0 10" fill="var(--bg)" stroke="var(--_arrow)" stroke-width="1.5" /></marker><marker id="class-composition" markerWidth="12" markerHeight="10" refX="0" refY="5" orient="auto-start-reverse"><polygon points="6 0, 12 5, 6 10, 0 5" fill="var(--_arrow)" stroke="var(--_arrow)" stroke-width="1" /></marker><marker id="class-aggregation" markerWidth="12" markerHeight="10" refX="0" refY="5" orient="auto-start-reverse"><polygon points="6 0, 12 5, 6 10, 0 5" fill="var(--bg)" stroke="var(--_arrow)" stroke-width="1.5" /></marker><style>.node-shape{fill:var(--_node-fill);stroke:var(--_node-stroke);stroke-width:1.5}.node-header{fill:var(--_group-hdr);stroke:var(--_node-stroke);stroke-width:1}.node-divider{stroke:var(--_node-stroke);stroke-width:1}.edge{fill:none;stroke:var(--_line);stroke-width:0.75}.lifeline{fill:none;stroke:var(--_line);stroke-width:0.75;stroke-dasharray:6 4}.label{fill:var(--_text);font-size:13px}.class-header-text{font-weight:700}.class-row{fill:var(--_text-muted);font-size:11px}.edge-endpoint{fill:var(--_text-muted);font-size:11px}.edge-label-bg{fill:var(--bg);stroke:var(--_inner-stroke);stroke-width:0.5}.edge-label{fill:var(--_text-muted);font-size:11px}.state-start{fill:var(--_text)}.sequence-actor{fill:none;stroke:var(--_line);stroke-width:1.5}.sequence-block{fill:none;stroke:var(--_node-stroke);stroke-width:1}.sequence-block-tab{fill:var(--_group-hdr);stroke:var(--_node-stroke);stroke-width:1}.sequence-block-label{fill:var(--_text-sec);font-size:11px;font-weight:600}.sequence-divider{stroke:var(--_line);stroke-width:0.75;stroke-dasharray:6 4}.sequence-divider-label{fill:var(--_text-muted);font-size:11px}.sequence-activation{fill:var(--_node-fill);stroke:var(--_node-stroke);stroke-width:0.75}.sequence-note{fill:var(--_group-hdr);stroke:var(--_node-stroke);stroke-width:0.75}.sequence-note-fold{fill:var(--_inner-stroke)}.sequence-note-text{fill:var(--_text-muted);font-size:11px}</style></defs><rect width="365" height="230" fill="var(--bg)" /><path class="edge" d="M135 100 L50 100 Q40 100 40 110 L40 120 Q40 130 50 130 L135 130" /><text class="edge-endpoint" x="143" y="110" text-anchor="middle">||</text><text class="edge-endpoint" x="143" y="120" text-anchor="middle">o{</text><rect class="edge-label-bg" x="14" y="102" width="52" height="27" rx="4" ry="4" /><text class="edge-label" x="40" y="115" text-anchor="middle" dominant-baseline="middle">places</text><path class="edge" d="M135 100 L294 100 Q304 100 304 110 L304 120 Q304 130 294 130 L265 130" stroke-dasharray="4 4" /><text class="edge-endpoint" x="145" y="94" text-anchor="middle">||</text><text class="edge-endpoint" x="255" y="124" text-anchor="middle">o{</text><rect class="edge-label-bg" x="219" y="87" width="70" height="27" rx="4" ry="4" /><text class="edge-label" x="254" y="100" text-anchor="middle" dominant-baseline="middle">generates</text><rect class="node-shape" x="75" y="40" width="120" height="60" rx="0" /><rect class="node-header" x="75" y="40" width="120" height="32" rx="0" /><line class="node-divider" x1="75" y1="72" x2="195" y2="72" /><text class="label class-header-text" x="135" y="56" text-anchor="middle" dominant-baseline="middle">USER</text><text class="class-row" x="135" y="86" text-anchor="middle">(no attributes)</text><rect class="node-shape" x="75" y="130" width="120" height="60" rx="0" /><rect class="node-header" x="75" y="130" width="120" height="32" rx="0" /><line class="node-divider" x1="75" y1="162" x2="195" y2="162" /><text class="label class-header-text" x="135" y="146" text-anchor="middle" dominant-baseline="middle">ORDER</text><text class="class-row" x="135" y="176" text-anchor="middle">(no attributes)</text><rect class="node-shape" x="205" y="130" width="120" height="60" rx="0" /><rect class="node-header" x="205" y="130" width="120" height="32" rx="0" /><line class="node-divider" x1="205" y1="162" x2="325" y2="162" /><text class="label class-header-text" x="265" y="146" text-anchor="middle" dominant-baseline="middle">LOG</text><text class="class-row" x="265" y="176" text-anchor="middle">(no attributes)</text></svg>