<svg xmlns="http://www.w3.org/2000/svg" width="674" height="177" viewBox="0 0 674 177" style="--bg:#FFFFFF;--fg:#27272A;background:var(--bg)"><style>@import url('https://fonts.googleapis.com/css2?family=Inter:wght@400;500;600;700&amp;display=swap');text{font-family:'Inter',system-ui,sans-serif}svg{--_text:var(--fg);--_text-sec:var(--muted,color-mix(in srgb,var(--fg) 60%,var(--bg)));--_text-muted:var(--muted,color-mix(in srgb,var(--fg) 40%,var(--bg)));--_text-faint:color-mix(in srgb,var(--fg) 25%,var(--bg));--_line:var(--line,color-mix(in srgb,var(--fg) 30%,var(--bg)));--_arrow:var(--accent,color-mix(in srgb,var(--fg) 50%,var(--bg)));--_node-fill:var(--surface,color-mix(in srgb,var(--fg) 3%,var(--bg)));--_node-stroke:var(--border,color-mix(in srgb,var(--fg) 20%,var(--bg)));--_group-fill:var(--bg);--_group-hdr:color-mix(in srgb,var(--fg) 5%,var(--bg));--_inner-stroke:color-mix(in srgb,var(--fg) 12%,var(--bg));--_key-badge:color-mix(in srgb,var(--fg) 10%,var(--bg));}</style><defs><marker id="arrowhead" markerWidth="8" markerHeight="4.8" refX="8" refY="2.4" orient="auto"><polygon points="0 0, 8 2.4, 0 4.8" fill="var(--_arrow)" /></marker><marker id="arrowhead-start" markerWidth="8" markerHeight="4.8" refX="0" refY="2.4" orient="auto-start-reverse"><polygon points="8 0, 0 2.4, 8 4.8" fill="var(--_arrow)" /></marker><marker id="seq-arrow" markerWidth="8" markerHeight="4.8" refX="8" refY="2.4" orient="auto-start-reverse"><polygon points="0 0, 8 2.4, 0 4.8" fill="var(--_arrow)" /></marker><marker id="seq-arrow-open" markerWidth="8" markerHeight="4.8" refX="8" refY="2.4" orient="auto-start-reverse"><polyline points="0 0, 8 2.4, 0 4.8" fill="none" stroke="var(--_arrow)" stroke-width="1" /></marker><marker id="class-arrow" markerWidth="8" markerHeight="6" refX="8" refY="3" orient="auto-start-reverse"><polyline points="0 0, 8 3, 0 6" fill="none" stroke="var(--_arrow)" stroke-width="1.5" /></marker><marker id="class-inherit" markerWidth="12" markerHeight="10" refX="12" refY="5" orient="auto-start-reverse"><polygon points="0 0, 12 5, 0 10" fill="var(--bg)" stroke="var(--_arrow)" stroke-width="1.5" /></marker><marker id="class-composition" markerWidth="12" markerHeight="10" refX="0" refY="5" orient="auto-start-reverse"><polygon points="6 0, 12 5, 6 10, 0 5" fill="var(--_arrow)" stroke="var(--_arrow)" stroke-width="1" /></marker><marker id="class-aggregation" markerWidth="12" markerHeight="10" refX="0" refY="5" orient="auto-start-reverse"><polygon points="6 0, 12 5, 6 10, 0 5" fill="var(--bg)" stroke="var(--_arrow)" stroke-width="1.5" /></marker><style>.node-shape{fill:var(--_node-fill);stroke:var(--_node-stroke);stroke-width:1.5}.node-header{fill:var(--_group-hdr);stroke:var(--_node-stroke);stroke-width:1}.node-divider{stroke:var(--_node-stroke);stroke-width:1}.edge{fill:none;stroke:var(--_line);stroke-width:0.75}.lifeline{fill:none;stroke:var(--_line);stroke-width:0.75;stroke-dasharray:6 4}.label{fill:var(--_text);font-size:13px}.class-header-text{font-weight:700}.class-row{fill:var(--_text-muted);font-size:11px}.edge-endpoint{fill:var(--_text-muted);font-size:11px}.edge-label-bg{fill:var(--bg);stroke:var(--_inner-stroke);stroke-width:0.5}.edge-label{fill:var(--_text-muted);font-size:11px}.state-start{fill:var(--_text)}.sequence-actor{fill:none;stroke:var(--_line);stroke-width:1.5}.sequence-block{fill:none;stroke:var(--_node-stroke);stroke-width:1}.sequence-block-tab{fill:var(--_group-hdr);stroke:var(--_node-stroke);stroke-width:1}.sequence-block-label{fill:var(--_text-sec);font-size:11px;font-weight:600}.sequence-divider{stroke:var(--_line);stroke-width:0.75;stroke-dasharray:6 4}.sequence-divider-label{fill:var(--_text-muted);font-size:11px}.sequence-activation{fill:var(--_node-fill);stroke:var(--_node-stroke);stroke-width:0.75}.sequence-note{fill:var(--_group-hdr);stroke:var(--_node-stroke);stroke-width:0.75}.sequence-note-fold{fill:var(--_inner-stroke)}.sequence-note-text{fill:var(--_text-muted);font-size:11px}</style></defs><rect width="674" height="177" fill="var(--bg)" /><polyline class="edge" points="24,125 98,125" /><path class="edge" d="M122 125 L127 121 C132 117 143 109 154 105 C164 102 175 102 180 102 L186 102" marker-end="url(#arrowhead)" /><rect class="edge-label-bg" x="115" y="100" width="46" height="27" rx="4" ry="4" /><text class="edge-label" x="138" y="113" text-anchor="middle" dominant-baseline="middle">[a-b]</text><polyline class="edge" points="298,80 362,80" marker-end="url(#arrowhead)" /><rect class="edge-label-bg" x="319" y="67" width="22" height="27" rx="4" ry="4" /><text class="edge-label" x="330" y="80" text-anchor="middle" dominant-baseline="middle">c</text><path class="edge" d="M386 80 L391 87 C396 95 407 110 418 117 C428 125 439 125 444 125 L450 125" marker-end="url(#arrowhead)" /><rect class="edge-label-bg" x="391" y="89" width="22" height="27" rx="4" ry="4" /><text class="edge-label" x="402" y="102" text-anchor="middle" dominant-baseline="middle">d</text><path class="edge" d="M210 102 L215 98 C220 94 231 87 242 83 C252 80 263 80 268 80 L274 80" stroke-dasharray="4 4" marker-end="url(#arrowhead)" /><path class="edge" d="M210 102 L230 105 C250 109 290 117 330 121 C370 125 410 125 430 125 L450 125" stroke-dasharray="4 4" marker-end="url(#arrowhead)" /><path class="edge" d="M450 125 L450 132 C450 139 450 153 395 160 C340 167 231 167 176 160 C122 153 122 139 122 132 L122 125" stroke-dasharray="4 4" marker-end="url(#arrowhead)" /><polyline class="edge" points="474,125 538,125" stroke-dasharray="4 4" marker-end="url(#arrowhead)" /><polyline class="edge" points="562,125 626,125" /><circle class="state-start" cx="17" cy="125" r="5" fill="var(--_text)" stroke="none" /><circle class="node-shape" cx="110" cy="125" r="12" /><text class="label" x="110" y="125" text-anchor="middle" dominant-baseline="middle">0</text><circle class="node-shape" cx="286" cy="80" r="12" /><text class="label" x="286" y="80" text-anchor="middle" dominant-baseline="middle">1</text><circle class="node-shape" cx="374" cy="80" r="12" /><text class="label" x="374" y="80" text-anchor="middle" dominant-baseline="middle">2</text><circle class="node-shape" cx="198" cy="102" r="12" /><text class="label" x="198" y="102" text-anchor="middle" dominant-baseline="middle">3</text><circle class="node-shape" cx="462" cy="125" r="12" /><text class="label" x="462" y="125" text-anchor="middle" dominant-baseline="middle">4</text><circle class="node-shape" cx="550" cy="125" r="12" /><text class="label" x="550" y="125" text-anchor="middle" dominant-baseline="middle">5</text><circle class="node-shape" cx="645" cy="125" r="19" /><circle class="node-shape" cx="645" cy="125" r="14" /><text class="label" x="645" y="125" text-anchor="middle" dominant-baseline="middle">#0</text></svg>