<svg xmlns="http://www.w3.org/2000/svg" width="484" height="1522" viewBox="0 0 484 1522" style="--bg:#FFFFFF;--fg:#27272A;background:var(--bg)"><style>@import url('https://fonts.googleapis.com/css2?family=Inter:wght@400;500;600;700&amp;display=swap');text{font-family:'Inter',system-ui,sans-serif}svg{--_text:var(--fg);--_text-sec:var(--muted,color-mix(in srgb,var(--fg) 60%,var(--bg)));--_text-muted:var(--muted,color-mix(in srgb,var(--fg) 40%,var(--bg)));--_text-faint:color-mix(in srgb,var(--fg) 25%,var(--bg));--_line:var(--line,color-mix(in srgb,var(--fg) 30%,var(--bg)));--_arrow:var(--accent,color-mix(in srgb,var(--fg) 50%,var(--bg)));--_node-fill:var(--surface,color-mix(in srgb,var(--fg) 3%,var(--bg)));--_node-stroke:var(--border,color-mix(in srgb,var(--fg) 20%,var(--bg)));--_group-fill:var(--bg);--_group-hdr:color-mix(in srgb,var(--fg) 5%,var(--bg));--_inner-stroke:color-mix(in srgb,var(--fg) 12%,var(--bg));--_key-badge:color-mix(in srgb,var(--fg) 10%,var(--bg));}</style><defs><marker id="arrowhead" markerWidth="8" markerHeight="4.8" refX="8" refY="2.4" orient="auto"><polygon points="0 0, 8 2.4, 0 4.8" fill="var(--_arrow)" /></marker><marker id="arrowhead-start" markerWidth="8" markerHeight="4.8" refX="0" refY="2.4" orient="auto-start-reverse"><polygon points="8 0, 0 2.4, 8 4.8" fill="var(--_arrow)" /></marker><marker id="seq-arrow" markerWidth="8" markerHeight="4.8" refX="8" refY="2.4" orient="auto-start-reverse"><polygon points="0 0, 8 2.4, 0 4.8" fill="var(--_arrow)" /></marker><marker id="seq-arrow-open" markerWidth="8" markerHeight="4.8" refX="8" refY="2.4" orient="auto-start-reverse"><polyline points="0 0, 8 2.4, 0 4.8" fill="none" stroke="var(--_arrow)" stroke-width="1" /></marker><marker id="class-arrow" markerWidth="8" markerHeight="6" refX="8" refY="3" orient="auto-start-reverse"><polyline points="0 0, 8 3, 0 6" fill="none" stroke="var(--_arrow)" stroke-width="1.5" /></marker><marker id="class-inherit" markerWidth="12" markerHeight="10" refX="12" refY="5" orient="auto-start-reverse"><polygon points="0 0, 12 5, 0 10" fill="var(--bg)" stroke="var(--_arrow)" stroke-width="1.5" /></marker><marker id="class-composition" markerWidth="12" markerHeight="10" refX="0" refY="5" orient="auto-start-reverse"><polygon points="6 0, 12 5, 6 10, 0 5" fill="var(--_arrow)" stroke="var(--_arrow)" stroke-width="1" /></marker><marker id="class-aggregation" markerWidth="12" markerHeight="10" refX="0" refY="5" orient="auto-start-reverse"><polygon points="6 0, 12 5, 6 10, 0 5" fill="var(--bg)" stroke="var(--_arrow)" stroke-width="1.5" /></marker><style>.node-shape{fill:var(--_node-fill);stroke:var(--_node-stroke);stroke-width:1.5}.node-header{fill:var(--_group-hdr);stroke:var(--_node-stroke);stroke-width:1}.node-divider{stroke:var(--_node-stroke);stroke-width:1}.edge{fill:none;stroke:var(--_line);stroke-width:0.75}.lifeline{fill:none;stroke:var(--_line);stroke-width:0.75;stroke-dasharray:6 4}.label{fill:var(--_text);font-size:13px}.class-header-text{font-weight:700}.class-row{fill:var(--_text-muted);font-size:11px}.edge-endpoint{fill:var(--_text-muted);font-size:11px}.edge-label-bg{fill:var(--bg);stroke:var(--_inner-stroke);stroke-width:0.5}.edge-label{fill:var(--_text-muted);font-size:11px}.state-start{fill:var(--_text)}.sequence-actor{fill:none;stroke:var(--_line);stroke-width:1.5}.sequence-block{fill:none;stroke:var(--_node-stroke);stroke-width:1}.sequence-block-tab{fill:var(--_group-hdr);stroke:var(--_node-stroke);stroke-width:1}.sequence-block-label{fill:var(--_text-sec);font-size:11px;font-weight:600}.sequence-divider{stroke:var(--_line);stroke-width:0.75;stroke-dasharray:6 4}.sequence-divider-label{fill:var(--_text-muted);font-size:11px}.sequence-activation{fill:var(--_node-fill);stroke:var(--_node-stroke);stroke-width:0.75}.sequence-note{fill:var(--_group-hdr);stroke:var(--_node-stroke);stroke-width:0.75}.sequence-note-fold{fill:var(--_inner-stroke)}.sequence-note-text{fill:var(--_text-muted);font-size:11px}</style></defs><rect width="484" height="1522" fill="var(--bg)" /><polyline class="edge" points="168,920 170,110" /><polyline class="edge" points="112,1010 170,200" marker-end="url(#arrowhead)" /><polyline class="edge" points="112,1100 170,290" marker-end="url(#arrowhead)" /><polyline class="edge" points="112,1190 170,380" marker-end="url(#arrowhead)" /><polyline class="edge" points="240,380 300,110" /><polyline class="edge" points="112,1280 170,470" marker-end="url(#arrowhead)" /><polyline class="edge" points="112,1370 170,560" marker-end="url(#arrowhead)" /><polyline class="edge" points="112,1460 170,650" marker-end="url(#arrowhead)" /><polyline class="edge" points="240,650 300,200" /><polyline class="edge" points="240,110 300,290" stroke-dasharray="4 4" marker-end="url(#arrowhead)" /><polyline class="edge" points="240,110 300,380" stroke-dasharray="4 4" marker-end="url(#arrowhead)" /><polygon class="node-shape" points="96,88 152,110 96,132 40,110" /><text class="label" x="96" y="110" text-anchor="middle" dominant-baseline="middle">shape: circ</text><polygon class="node-shape" points="96,178 152,200 96,222 40,200" /><text class="label" x="96" y="200" text-anchor="middle" dominant-baseline="middle">shape: circ</text><polygon class="node-shape" points="96,268 152,290 96,312 40,290" /><text class="label" x="96" y="290" text-anchor="middle" dominant-baseline="middle">shape: circ</text><polygon class="node-shape" points="96,358 152,380 96,402 40,380" /><text class="label" x="96" y="380" text-anchor="middle" dominant-baseline="middle">shape: circ</text><polygon class="node-shape" points="96,448 152,470 96,492 40,470" /><text class="label" x="96" y="470" text-anchor="middle" dominant-baseline="middle">shape: circ</text><polygon class="node-shape" points="96,538 152,560 96,582 40,560" /><text class="label" x="96" y="560" text-anchor="middle" dominant-baseline="middle">shape: circ</text><polygon class="node-shape" points="96,628 152,650 96,672 40,650" /><text class="label" x="96" y="650" text-anchor="middle" dominant-baseline="middle">shape: circ</text><polygon class="node-shape" points="96,718 152,740 96,762 40,740" /><text class="label" x="96" y="740" text-anchor="middle" dominant-baseline="middle">shape: circ</text><polygon class="node-shape" points="96,808 152,830 96,852 40,830" /><text class="label" x="96" y="830" text-anchor="middle" dominant-baseline="middle">shape: circ</text><polygon class="node-shape" points="104,898 168,920 104,942 40,920" /><text class="label" x="104" y="920" text-anchor="middle" dominant-baseline="middle">shape: f-circ</text><rect class="node-shape" x="170" y="88" width="70" height="44" rx="0" ry="0" /><text class="label" x="205" y="110" text-anchor="middle" dominant-baseline="middle">8</text><rect class="node-shape" x="40" y="988" width="72" height="44" rx="0" ry="0" /><text class="label" x="76" y="1010" text-anchor="middle" dominant-baseline="middle">0 -- A</text><rect class="node-shape" x="170" y="178" width="70" height="44" rx="0" ry="0" /><text class="label" x="205" y="200" text-anchor="middle" dominant-baseline="middle">1</text><rect class="node-shape" x="40" y="1078" width="72" height="44" rx="0" ry="0" /><text class="label" x="76" y="1100" text-anchor="middle" dominant-baseline="middle">1 -- B</text><rect class="node-shape" x="170" y="268" width="70" height="44" rx="0" ry="0" /><text class="label" x="205" y="290" text-anchor="middle" dominant-baseline="middle">2</text><rect class="node-shape" x="40" y="1168" width="72" height="44" rx="0" ry="0" /><text class="label" x="76" y="1190" text-anchor="middle" dominant-baseline="middle">2 -- C</text><rect class="node-shape" x="170" y="358" width="70" height="44" rx="0" ry="0" /><text class="label" x="205" y="380" text-anchor="middle" dominant-baseline="middle">3</text><polygon class="node-shape" points="372,88 444,110 372,132 300,110" /><text class="label" x="372" y="110" text-anchor="middle" dominant-baseline="middle">shape: dbl-circ</text><rect class="node-shape" x="40" y="1258" width="72" height="44" rx="0" ry="0" /><text class="label" x="76" y="1280" text-anchor="middle" dominant-baseline="middle">4 -- A</text><rect class="node-shape" x="170" y="448" width="70" height="44" rx="0" ry="0" /><text class="label" x="205" y="470" text-anchor="middle" dominant-baseline="middle">5</text><rect class="node-shape" x="40" y="1348" width="72" height="44" rx="0" ry="0" /><text class="label" x="76" y="1370" text-anchor="middle" dominant-baseline="middle">5 -- B</text><rect class="node-shape" x="170" y="538" width="70" height="44" rx="0" ry="0" /><text class="label" x="205" y="560" text-anchor="middle" dominant-baseline="middle">6</text><rect class="node-shape" x="40" y="1438" width="72" height="44" rx="0" ry="0" /><text class="label" x="76" y="1460" text-anchor="middle" dominant-baseline="middle">6 -- C</text><rect class="node-shape" x="170" y="628" width="70" height="44" rx="0" ry="0" /><text class="label" x="205" y="650" text-anchor="middle" dominant-baseline="middle">7</text><polygon class="node-shape" points="372,178 444,200 372,222 300,200" /><text class="label" x="372" y="200" text-anchor="middle" dominant-baseline="middle">shape: dbl-circ</text><rect class="node-shape" x="300" y="268" width="70" height="44" rx="0" ry="0" /><text class="label" x="335" y="290" text-anchor="middle" dominant-baseline="middle">0</text><rect class="node-shape" x="300" y="358" width="70" height="44" rx="0" ry="0" /><text class="label" x="335" y="380" text-anchor="middle" dominant-baseline="middle">4</text></svg>