<svg xmlns="http://www.w3.org/2000/svg" width="734" height="214" viewBox="0 0 734 214" style="--bg:#FFFFFF;--fg:#27272A;background:var(--bg)"><style>@import url('https://fonts.googleapis.com/css2?family=Inter:wght@400;500;600;700&amp;display=swap');text{font-family:'Inter',system-ui,sans-serif}svg{--_text:var(--fg);--_text-sec:var(--muted,color-mix(in srgb,var(--fg) 60%,var(--bg)));--_text-muted:var(--muted,color-mix(in srgb,var(--fg) 40%,var(--bg)));--_text-faint:color-mix(in srgb,var(--fg) 25%,var(--bg));--_line:var(--line,color-mix(in srgb,var(--fg) 30%,var(--bg)));--_arrow:var(--accent,color-mix(in srgb,var(--fg) 50%,var(--bg)));--_node-fill:var(--surface,color-mix(in srgb,var(--fg) 3%,var(--bg)));--_node-stroke:var(--border,color-mix(in srgb,var(--fg) 20%,var(--bg)));--_group-fill:var(--bg);--_group-hdr:color-mix(in srgb,var(--fg) 5%,var(--bg));--_inner-stroke:color-mix(in srgb,var(--fg) 12%,var(--bg));--_key-badge:color-mix(in srgb,var(--fg) 10%,var(--bg));}</style><defs><marker id="arrowhead" markerWidth="8" markerHeight="4.8" refX="8" refY="2.4" orient="auto"><polygon points="0 0, 8 2.4, 0 4.8" fill="var(--_arrow)" /></marker><marker id="arrowhead-start" markerWidth="8" markerHeight="4.8" refX="0" refY="2.4" orient="auto-start-reverse"><polygon points="8 0, 0 2.4, 8 4.8" fill="var(--_arrow)" /></marker><marker id="seq-arrow" markerWidth="8" markerHeight="4.8" refX="8" refY="2.4" orient="auto-start-reverse"><polygon points="0 0, 8 2.4, 0 4.8" fill="var(--_arrow)" /></marker><marker id="seq-arrow-open" markerWidth="8" markerHeight="4.8" refX="8" refY="2.4" orient="auto-start-reverse"><polyline points="0 0, 8 2.4, 0 4.8" fill="none" stroke="var(--_arrow)" stroke-width="1" /></marker><marker id="class-arrow" markerWidth="8" markerHeight="6" refX="8" refY="3" orient="auto-start-reverse"><polyline points="0 0, 8 3, 0 6" fill="none" stroke="var(--_arrow)" stroke-width="1.5" /></marker><marker id="class-inherit" markerWidth="12" markerHeight="10" refX="12" refY="5" orient="auto-start-reverse"><polygon points="0 0, 12 5, 0 10" fill="var(--bg)" stroke="var(--_arrow)" stroke-width="1.5" /></marker><marker id="class-composition" markerWidth="12" markerHeight="10" refX="0" refY="5" orient="auto-start-reverse"><polygon points="6 0, 12 5, 6 10, 0 5" fill="var(--_arrow)" stroke="var(--_arrow)" stroke-width="1" /></marker><marker id="class-aggregation" markerWidth="12" markerHeight="10" refX="0" refY="5" orient="auto-start-reverse"><polygon points="6 0, 12 5, 6 10, 0 5" fill="var(--bg)" stroke="var(--_arrow)" stroke-width="1.5" /></marker><style>.node-shape{fill:var(--_node-fill);stroke:var(--_node-stroke);stroke-width:1.5}.node-header{fill:var(--_group-hdr);stroke:var(--_node-stroke);stroke-width:1}.node-divider{stroke:var(--_node-stroke);stroke-width:1}.edge{fill:none;stroke:var(--_line);stroke-width:0.75}.lifeline{fill:none;stroke:var(--_line);stroke-width:0.75;stroke-dasharray:6 4}.label{fill:var(--_text);font-size:13px}.class-header-text{font-weight:700}.class-row{fill:var(--_text-muted);font-size:11px}.edge-endpoint{fill:var(--_text-muted);font-size:11px}.edge-label-bg{fill:var(--bg);stroke:var(--_inner-stroke);stroke-width:0.5}.edge-label{fill:var(--_text-muted);font-size:11px}.state-start{fill:var(--_text)}.sequence-actor{fill:none;stroke:var(--_line);stroke-width:1.5}.sequence-block{fill:none;stroke:var(--_node-stroke);stroke-width:1}.sequence-block-tab{fill:var(--_group-hdr);stroke:var(--_node-stroke);stroke-width:1}.sequence-block-label{fill:var(--_text-sec);font-size:11px;font-weight:600}.sequence-divider{stroke:var(--_line);stroke-width:0.75;stroke-dasharray:6 4}.sequence-divider-label{fill:var(--_text-muted);font-size:11px}.sequence-activation{fill:var(--_node-fill);stroke:var(--_node-stroke);stroke-width:0.75}.sequence-note{fill:var(--_group-hdr);stroke:var(--_node-stroke);stroke-width:0.75}.sequence-note-fold{fill:var(--_inner-stroke)}.sequence-note-text{fill:var(--_text-muted);font-size:11px}</style></defs><rect width="734" height="214" fill="var(--bg)" /><polyline class="edge" points="54,155 128,155" /><polyline class="edge" points="152,155 216,155" marker-end="url(#arrowhead)" /><rect class="edge-label-bg" x="161" y="142" width="46" height="27" rx="4" ry="4" /><text class="edge-label" x="184" y="155" text-anchor="middle" dominant-baseline="middle">[a-b]</text><polyline class="edge" points="328,110 392,110" marker-end="url(#arrowhead)" /><rect class="edge-label-bg" x="349" y="97" width="22" height="27" rx="4" ry="4" /><text class="edge-label" x="360" y="110" text-anchor="middle" dominant-baseline="middle">c</text><polyline class="edge" points="416,110 480,155" marker-end="url(#arrowhead)" /><rect class="edge-label-bg" x="437" y="119" width="22" height="27" rx="4" ry="4" /><text class="edge-label" x="448" y="132" text-anchor="middle" dominant-baseline="middle">d</text><polyline class="edge" points="240,155 272,147 304,110" stroke-dasharray="4 4" marker-end="url(#arrowhead)" /><polyline class="edge" points="240,155 360,163 480,155" stroke-dasharray="4 4" marker-end="url(#arrowhead)" /><polyline class="edge" points="480,155 480,113 152,113 152,155" stroke-dasharray="4 4" marker-end="url(#arrowhead)" /><polyline class="edge" points="504,155 568,155" stroke-dasharray="4 4" marker-end="url(#arrowhead)" /><polyline class="edge" points="592,155 656,155" /><circle class="state-start" cx="47" cy="155" r="5" fill="var(--_text)" stroke="none" /><text class="label" x="47" y="155" text-anchor="middle" dominant-baseline="middle">start</text><circle class="node-shape" cx="140" cy="155" r="12" /><text class="label" x="140" y="155" text-anchor="middle" dominant-baseline="middle">0</text><circle class="node-shape" cx="316" cy="110" r="12" /><text class="label" x="316" y="110" text-anchor="middle" dominant-baseline="middle">1</text><circle class="node-shape" cx="404" cy="110" r="12" /><text class="label" x="404" y="110" text-anchor="middle" dominant-baseline="middle">2</text><circle class="node-shape" cx="228" cy="155" r="12" /><text class="label" x="228" y="155" text-anchor="middle" dominant-baseline="middle">3</text><circle class="node-shape" cx="492" cy="155" r="12" /><text class="label" x="492" y="155" text-anchor="middle" dominant-baseline="middle">4</text><circle class="node-shape" cx="580" cy="155" r="12" /><text class="label" x="580" y="155" text-anchor="middle" dominant-baseline="middle">5</text><circle class="node-shape" cx="675" cy="155" r="19" /><circle class="node-shape" cx="675" cy="155" r="14" /><text class="label" x="675" y="155" text-anchor="middle" dominant-baseline="middle">#0</text></svg>