<svg xmlns="http://www.w3.org/2000/svg" width="586" height="199" viewBox="0 0 586 199" style="--bg:#FFFFFF;--fg:#27272A;background:var(--bg)"><style>@import url('https://fonts.googleapis.com/css2?family=Inter:wght@400;500;600;700&amp;display=swap');text{font-family:'Inter',system-ui,sans-serif}svg{--_text:var(--fg);--_text-sec:var(--muted,color-mix(in srgb,var(--fg) 60%,var(--bg)));--_text-muted:var(--muted,color-mix(in srgb,var(--fg) 40%,var(--bg)));--_text-faint:color-mix(in srgb,var(--fg) 25%,var(--bg));--_line:var(--line,color-mix(in srgb,var(--fg) 30%,var(--bg)));--_arrow:var(--accent,color-mix(in srgb,var(--fg) 50%,var(--bg)));--_node-fill:var(--surface,color-mix(in srgb,var(--fg) 3%,var(--bg)));--_node-stroke:var(--border,color-mix(in srgb,var(--fg) 20%,var(--bg)));--_group-fill:var(--bg);--_group-hdr:color-mix(in srgb,var(--fg) 5%,var(--bg));--_inner-stroke:color-mix(in srgb,var(--fg) 12%,var(--bg));--_key-badge:color-mix(in srgb,var(--fg) 10%,var(--bg));}</style><defs><marker id="arrowhead" markerWidth="8" markerHeight="4.8" refX="8" refY="2.4" orient="auto"><polygon points="0 0, 8 2.4, 0 4.8" fill="var(--_arrow)" /></marker><marker id="arrowhead-start" markerWidth="8" markerHeight="4.8" refX="0" refY="2.4" orient="auto-start-reverse"><polygon points="8 0, 0 2.4, 8 4.8" fill="var(--_arrow)" /></marker><marker id="seq-arrow" markerWidth="8" markerHeight="4.8" refX="8" refY="2.4" orient="auto-start-reverse"><polygon points="0 0, 8 2.4, 0 4.8" fill="var(--_arrow)" /></marker><marker id="seq-arrow-open" markerWidth="8" markerHeight="4.8" refX="8" refY="2.4" orient="auto-start-reverse"><polyline points="0 0, 8 2.4, 0 4.8" fill="none" stroke="var(--_arrow)" stroke-width="1" /></marker><marker id="class-arrow" markerWidth="8" markerHeight="6" refX="8" refY="3" orient="auto-start-reverse"><polyline points="0 0, 8 3, 0 6" fill="none" stroke="var(--_arrow)" stroke-width="1.5" /></marker><marker id="class-inherit" markerWidth="12" markerHeight="10" refX="12" refY="5" orient="auto-start-reverse"><polygon points="0 0, 12 5, 0 10" fill="var(--bg)" stroke="var(--_arrow)" stroke-width="1.5" /></marker><marker id="class-composition" markerWidth="12" markerHeight="10" refX="0" refY="5" orient="auto-start-reverse"><polygon points="6 0, 12 5, 6 10, 0 5" fill="var(--_arrow)" stroke="var(--_arrow)" stroke-width="1" /></marker><marker id="class-aggregation" markerWidth="12" markerHeight="10" refX="0" refY="5" orient="auto-start-reverse"><polygon points="6 0, 12 5, 6 10, 0 5" fill="var(--bg)" stroke="var(--_arrow)" stroke-width="1.5" /></marker><style>.node-shape{fill:var(--_node-fill);stroke:var(--_node-stroke);stroke-width:1.5}.node-header{fill:var(--_group-hdr);stroke:var(--_node-stroke);stroke-width:1}.node-divider{stroke:var(--_node-stroke);stroke-width:1}.edge{fill:none;stroke:var(--_line);stroke-width:0.75}.lifeline{fill:none;stroke:var(--_line);stroke-width:0.75;stroke-dasharray:6 4}.label{fill:var(--_text);font-size:13px}.class-header-text{font-weight:700}.class-row{fill:var(--_text-muted);font-size:11px}.edge-endpoint{fill:var(--_text-muted);font-size:11px}.edge-label-bg{fill:var(--bg);stroke:var(--_inner-stroke);stroke-width:0.5}.edge-label{fill:var(--_text-muted);font-size:11px}.state-start{fill:var(--_text)}.sequence-actor{fill:none;stroke:var(--_line);stroke-width:1.5}.sequence-block{fill:none;stroke:var(--_node-stroke);stroke-width:1}.sequence-block-tab{fill:var(--_group-hdr);stroke:var(--_node-stroke);stroke-width:1}.sequence-block-label{fill:var(--_text-sec);font-size:11px;font-weight:600}.sequence-divider{stroke:var(--_line);stroke-width:0.75;stroke-dasharray:6 4}.sequence-divider-label{fill:var(--_text-muted);font-size:11px}.sequence-activation{fill:var(--_node-fill);stroke:var(--_node-stroke);stroke-width:0.75}.sequence-note{fill:var(--_group-hdr);stroke:var(--_node-stroke);stroke-width:0.75}.sequence-note-fold{fill:var(--_inner-stroke)}.sequence-note-text{fill:var(--_text-muted);font-size:11px}</style></defs><rect width="586" height="199" fill="var(--bg)" /><polyline class="edge" points="24,125 98,125" /><polyline class="edge" points="210,80 274,80" marker-end="url(#arrowhead)" /><rect class="edge-label-bg" x="231" y="67" width="22" height="27" rx="4" ry="4" /><text class="edge-label" x="242" y="80" text-anchor="middle" dominant-baseline="middle">A</text><polyline class="edge" points="298,80 362,80" marker-end="url(#arrowhead)" /><rect class="edge-label-bg" x="319" y="67" width="22" height="27" rx="4" ry="4" /><text class="edge-label" x="330" y="80" text-anchor="middle" dominant-baseline="middle">B</text><polyline class="edge" points="386,80 450,80" marker-end="url(#arrowhead)" /><rect class="edge-label-bg" x="407" y="67" width="22" height="27" rx="4" ry="4" /><text class="edge-label" x="418" y="80" text-anchor="middle" dominant-baseline="middle">C</text><polyline class="edge" points="474,80 538,80" /><polyline class="edge" points="210,170 274,170" marker-end="url(#arrowhead)" /><rect class="edge-label-bg" x="231" y="157" width="22" height="27" rx="4" ry="4" /><text class="edge-label" x="242" y="170" text-anchor="middle" dominant-baseline="middle">A</text><polyline class="edge" points="298,170 362,170" marker-end="url(#arrowhead)" /><rect class="edge-label-bg" x="319" y="157" width="22" height="27" rx="4" ry="4" /><text class="edge-label" x="330" y="170" text-anchor="middle" dominant-baseline="middle">B</text><polyline class="edge" points="386,170 450,170" marker-end="url(#arrowhead)" /><rect class="edge-label-bg" x="407" y="157" width="22" height="27" rx="4" ry="4" /><text class="edge-label" x="418" y="170" text-anchor="middle" dominant-baseline="middle">C</text><polyline class="edge" points="474,170 538,170" /><polyline class="edge" points="122,119 122,125 154,80 186,80" stroke-dasharray="4 4" marker-end="url(#arrowhead)" /><polyline class="edge" points="122,131 122,125 154,170 186,170" stroke-dasharray="4 4" marker-end="url(#arrowhead)" /><circle class="state-start" cx="17" cy="125" r="5" fill="var(--_text)" stroke="none" /><circle class="node-shape" cx="198" cy="80" r="12" /><text class="label" x="198" y="80" text-anchor="middle" dominant-baseline="middle">0</text><circle class="node-shape" cx="286" cy="80" r="12" /><text class="label" x="286" y="80" text-anchor="middle" dominant-baseline="middle">1</text><circle class="node-shape" cx="374" cy="80" r="12" /><text class="label" x="374" y="80" text-anchor="middle" dominant-baseline="middle">2</text><circle class="node-shape" cx="462" cy="80" r="12" /><text class="label" x="462" y="80" text-anchor="middle" dominant-baseline="middle">3</text><circle class="node-shape" cx="198" cy="170" r="12" /><text class="label" x="198" y="170" text-anchor="middle" dominant-baseline="middle">4</text><circle class="node-shape" cx="286" cy="170" r="12" /><text class="label" x="286" y="170" text-anchor="middle" dominant-baseline="middle">5</text><circle class="node-shape" cx="374" cy="170" r="12" /><text class="label" x="374" y="170" text-anchor="middle" dominant-baseline="middle">6</text><circle class="node-shape" cx="462" cy="170" r="12" /><text class="label" x="462" y="170" text-anchor="middle" dominant-baseline="middle">7</text><circle class="node-shape" cx="110" cy="125" r="12" /><text class="label" x="110" y="125" text-anchor="middle" dominant-baseline="middle">8</text><circle class="node-shape" cx="557" cy="80" r="19" /><circle class="node-shape" cx="557" cy="80" r="14" /><text class="label" x="557" y="80" text-anchor="middle" dominant-baseline="middle">#0</text><circle class="node-shape" cx="557" cy="170" r="19" /><circle class="node-shape" cx="557" cy="170" r="14" /><text class="label" x="557" y="170" text-anchor="middle" dominant-baseline="middle">#1</text></svg>