<svg xmlns="http://www.w3.org/2000/svg" width="296" height="594" viewBox="0 0 296 594" style="--bg:#FFFFFF;--fg:#27272A;background:var(--bg)"><style>@import url('https://fonts.googleapis.com/css2?family=Inter:wght@400;500;600;700&amp;display=swap');text{font-family:'Inter',system-ui,sans-serif}svg{--_text:var(--fg);--_text-sec:var(--muted,color-mix(in srgb,var(--fg) 60%,var(--bg)));--_text-muted:var(--muted,color-mix(in srgb,var(--fg) 40%,var(--bg)));--_text-faint:color-mix(in srgb,var(--fg) 25%,var(--bg));--_line:var(--line,color-mix(in srgb,var(--fg) 30%,var(--bg)));--_arrow:var(--accent,color-mix(in srgb,var(--fg) 50%,var(--bg)));--_node-fill:var(--surface,color-mix(in srgb,var(--fg) 3%,var(--bg)));--_node-stroke:var(--border,color-mix(in srgb,var(--fg) 20%,var(--bg)));--_group-fill:var(--bg);--_group-hdr:color-mix(in srgb,var(--fg) 5%,var(--bg));--_inner-stroke:color-mix(in srgb,var(--fg) 12%,var(--bg));--_key-badge:color-mix(in srgb,var(--fg) 10%,var(--bg));}</style><defs><marker id="arrowhead" markerWidth="8" markerHeight="4.8" refX="8" refY="2.4" orient="auto"><polygon points="0 0, 8 2.4, 0 4.8" fill="var(--_arrow)" /></marker><marker id="arrowhead-start" markerWidth="8" markerHeight="4.8" refX="0" refY="2.4" orient="auto-start-reverse"><polygon points="8 0, 0 2.4, 8 4.8" fill="var(--_arrow)" /></marker><marker id="seq-arrow" markerWidth="8" markerHeight="4.8" refX="8" refY="2.4" orient="auto-start-reverse"><polygon points="0 0, 8 2.4, 0 4.8" fill="var(--_arrow)" /></marker><marker id="seq-arrow-open" markerWidth="8" markerHeight="4.8" refX="8" refY="2.4" orient="auto-start-reverse"><polyline points="0 0, 8 2.4, 0 4.8" fill="none" stroke="var(--_arrow)" stroke-width="1" /></marker><marker id="class-arrow" markerWidth="8" markerHeight="6" refX="8" refY="3" orient="auto-start-reverse"><polyline points="0 0, 8 3, 0 6" fill="none" stroke="var(--_arrow)" stroke-width="1.5" /></marker><marker id="class-inherit" markerWidth="12" markerHeight="10" refX="12" refY="5" orient="auto-start-reverse"><polygon points="0 0, 12 5, 0 10" fill="var(--bg)" stroke="var(--_arrow)" stroke-width="1.5" /></marker><marker id="class-composition" markerWidth="12" markerHeight="10" refX="0" refY="5" orient="auto-start-reverse"><polygon points="6 0, 12 5, 6 10, 0 5" fill="var(--_arrow)" stroke="var(--_arrow)" stroke-width="1" /></marker><marker id="class-aggregation" markerWidth="12" markerHeight="10" refX="0" refY="5" orient="auto-start-reverse"><polygon points="6 0, 12 5, 6 10, 0 5" fill="var(--bg)" stroke="var(--_arrow)" stroke-width="1.5" /></marker><style>.node-shape{fill:var(--_node-fill);stroke:var(--_node-stroke);stroke-width:1.5}.node-header{fill:var(--_group-hdr);stroke:var(--_node-stroke);stroke-width:1}.node-divider{stroke:var(--_node-stroke);stroke-width:1}.edge{fill:none;stroke:var(--_line);stroke-width:0.75}.lifeline{fill:none;stroke:var(--_line);stroke-width:0.75;stroke-dasharray:6 4}.label{fill:var(--_text);font-size:13px}.class-header-text{font-weight:700}.class-row{fill:var(--_text-muted);font-size:11px}.edge-endpoint{fill:var(--_text-muted);font-size:11px}.edge-label-bg{fill:var(--bg);stroke:var(--_inner-stroke);stroke-width:0.5}.edge-label{fill:var(--_text-muted);font-size:11px}.state-start{fill:var(--_text)}.sequence-actor{fill:none;stroke:var(--_line);stroke-width:1.5}.sequence-block{fill:none;stroke:var(--_node-stroke);stroke-width:1}.sequence-block-tab{fill:var(--_group-hdr);stroke:var(--_node-stroke);stroke-width:1}.sequence-block-label{fill:var(--_text-sec);font-size:11px;font-weight:600}.sequence-divider{stroke:var(--_line);stroke-width:0.75;stroke-dasharray:6 4}.sequence-divider-label{fill:var(--_text-muted);font-size:11px}.sequence-activation{fill:var(--_node-fill);stroke:var(--_node-stroke);stroke-width:0.75}.sequence-note{fill:var(--_group-hdr);stroke:var(--_node-stroke);stroke-width:0.75}.sequence-note-fold{fill:var(--_inner-stroke)}.sequence-note-text{fill:var(--_text-muted);font-size:11px}</style></defs><rect width="296" height="594" fill="var(--bg)" /><polyline class="edge" points="130,54 130,130" marker-end="url(#arrowhead)" /><polyline class="edge" points="130,174 130,230" marker-end="url(#arrowhead)" /><rect class="edge-label-bg" x="107" y="189" width="46" height="27" rx="4" ry="4" /><text class="edge-label" x="130" y="202" text-anchor="middle" dominant-baseline="middle">start</text><polyline class="edge" points="130,274 130,330" marker-end="url(#arrowhead)" /><rect class="edge-label-bg" x="107" y="289" width="46" height="27" rx="4" ry="4" /><text class="edge-label" x="130" y="302" text-anchor="middle" dominant-baseline="middle">pause</text><path class="edge" d="M112 330 L65 330 Q55 330 55 320 L55 284 Q55 274 65 274 L130 274" marker-end="url(#arrowhead)" /><rect class="edge-label-bg" x="29" y="280" width="52" height="27" rx="4" ry="4" /><text class="edge-label" x="55" y="293" text-anchor="middle" dominant-baseline="middle">resume</text><path class="edge" d="M130 274 L188 274 Q198 274 198 284 L198 421 Q198 430 207 430 L216 430" marker-end="url(#arrowhead)" /><rect class="edge-label-bg" x="178" y="314" width="40" height="27" rx="4" ry="4" /><text class="edge-label" x="198" y="327" text-anchor="middle" dominant-baseline="middle">stop</text><polyline class="edge" points="216,474 130,540" marker-end="url(#arrowhead)" /><circle class="state-start" cx="130" cy="47" r="5" fill="var(--_text)" stroke="none" /><rect class="node-shape" x="95" y="130" width="70" height="44" rx="6" ry="6" /><text class="label" x="130" y="152" text-anchor="middle" dominant-baseline="middle">Ready</text><rect class="node-shape" x="90" y="230" width="80" height="44" rx="6" ry="6" /><text class="label" x="130" y="252" text-anchor="middle" dominant-baseline="middle">Running</text><rect class="node-shape" x="94" y="330" width="72" height="44" rx="6" ry="6" /><text class="label" x="130" y="352" text-anchor="middle" dominant-baseline="middle">Paused</text><rect class="node-shape" x="176" y="430" width="80" height="44" rx="6" ry="6" /><text class="label" x="216" y="452" text-anchor="middle" dominant-baseline="middle">Stopped</text><circle class="node-shape" cx="130" cy="547" r="5" fill="none" stroke="var(--_text)" stroke-width="1.5" /><circle class="state-start" cx="130" cy="547" r="1" fill="var(--_text)" stroke="none" /></svg>