<svg xmlns="http://www.w3.org/2000/svg" width="954" height="232" viewBox="0 0 954 232" style="--bg:#FFFFFF;--fg:#27272A;background:var(--bg)"><style>@import url('https://fonts.googleapis.com/css2?family=Inter:wght@400;500;600;700&amp;display=swap');text{font-family:'Inter',system-ui,sans-serif}svg{--_text:var(--fg);--_text-sec:var(--muted,color-mix(in srgb,var(--fg) 60%,var(--bg)));--_text-muted:var(--muted,color-mix(in srgb,var(--fg) 40%,var(--bg)));--_text-faint:color-mix(in srgb,var(--fg) 25%,var(--bg));--_line:var(--line,color-mix(in srgb,var(--fg) 30%,var(--bg)));--_arrow:var(--accent,color-mix(in srgb,var(--fg) 50%,var(--bg)));--_node-fill:var(--surface,color-mix(in srgb,var(--fg) 3%,var(--bg)));--_node-stroke:var(--border,color-mix(in srgb,var(--fg) 20%,var(--bg)));--_group-fill:var(--bg);--_group-hdr:color-mix(in srgb,var(--fg) 5%,var(--bg));--_inner-stroke:color-mix(in srgb,var(--fg) 12%,var(--bg));--_key-badge:color-mix(in srgb,var(--fg) 10%,var(--bg));}</style><defs><marker id="arrowhead" markerWidth="8" markerHeight="4.8" refX="8" refY="2.4" orient="auto"><polygon points="0 0, 8 2.4, 0 4.8" fill="var(--_arrow)" /></marker><marker id="arrowhead-start" markerWidth="8" markerHeight="4.8" refX="0" refY="2.4" orient="auto-start-reverse"><polygon points="8 0, 0 2.4, 8 4.8" fill="var(--_arrow)" /></marker><marker id="seq-arrow" markerWidth="8" markerHeight="4.8" refX="8" refY="2.4" orient="auto-start-reverse"><polygon points="0 0, 8 2.4, 0 4.8" fill="var(--_arrow)" /></marker><marker id="seq-arrow-open" markerWidth="8" markerHeight="4.8" refX="8" refY="2.4" orient="auto-start-reverse"><polyline points="0 0, 8 2.4, 0 4.8" fill="none" stroke="var(--_arrow)" stroke-width="1" /></marker><marker id="class-arrow" markerWidth="8" markerHeight="6" refX="8" refY="3" orient="auto-start-reverse"><polyline points="0 0, 8 3, 0 6" fill="none" stroke="var(--_arrow)" stroke-width="1.5" /></marker><marker id="class-inherit" markerWidth="12" markerHeight="10" refX="12" refY="5" orient="auto-start-reverse"><polygon points="0 0, 12 5, 0 10" fill="var(--bg)" stroke="var(--_arrow)" stroke-width="1.5" /></marker><marker id="class-composition" markerWidth="12" markerHeight="10" refX="0" refY="5" orient="auto-start-reverse"><polygon points="6 0, 12 5, 6 10, 0 5" fill="var(--_arrow)" stroke="var(--_arrow)" stroke-width="1" /></marker><marker id="class-aggregation" markerWidth="12" markerHeight="10" refX="0" refY="5" orient="auto-start-reverse"><polygon points="6 0, 12 5, 6 10, 0 5" fill="var(--bg)" stroke="var(--_arrow)" stroke-width="1.5" /></marker><style>.node-shape{fill:var(--_node-fill);stroke:var(--_node-stroke);stroke-width:1.5}.node-header{fill:var(--_group-hdr);stroke:var(--_node-stroke);stroke-width:1}.node-divider{stroke:var(--_node-stroke);stroke-width:1}.edge{fill:none;stroke:var(--_line);stroke-width:0.75}.lifeline{fill:none;stroke:var(--_line);stroke-width:0.75;stroke-dasharray:6 4}.label{fill:var(--_text);font-size:13px}.class-header-text{font-weight:700}.class-row{fill:var(--_text-muted);font-size:11px}.edge-endpoint{fill:var(--_text-muted);font-size:11px}.edge-label-bg{fill:var(--bg);stroke:var(--_inner-stroke);stroke-width:0.5}.edge-label{fill:var(--_text-muted);font-size:11px}.state-start{fill:var(--_text)}.sequence-actor{fill:none;stroke:var(--_line);stroke-width:1.5}.sequence-block{fill:none;stroke:var(--_node-stroke);stroke-width:1}.sequence-block-tab{fill:var(--_group-hdr);stroke:var(--_node-stroke);stroke-width:1}.sequence-block-label{fill:var(--_text-sec);font-size:11px;font-weight:600}.sequence-divider{stroke:var(--_line);stroke-width:0.75;stroke-dasharray:6 4}.sequence-divider-label{fill:var(--_text-muted);font-size:11px}.sequence-activation{fill:var(--_node-fill);stroke:var(--_node-stroke);stroke-width:0.75}.sequence-note{fill:var(--_group-hdr);stroke:var(--_node-stroke);stroke-width:0.75}.sequence-note-fold{fill:var(--_inner-stroke)}.sequence-note-text{fill:var(--_text-muted);font-size:11px}</style></defs><rect width="954" height="232" fill="var(--bg)" /><path class="edge" d="M152 102 L50 102 Q40 102 40 112 L40 120 Q40 130 50 130 L152 130" marker-start="url(#class-inherit)" /><rect class="edge-label-bg" x="-1" y="103" width="82" height="27" rx="4" ry="4" /><text class="edge-label" x="40" y="116" text-anchor="middle" dominant-baseline="middle">inheritance</text><polyline class="edge" points="282,102 282,130" marker-start="url(#class-composition)" /><rect class="edge-label-bg" x="241" y="103" width="82" height="27" rx="4" ry="4" /><text class="edge-label" x="282" y="116" text-anchor="middle" dominant-baseline="middle">composition</text><polyline class="edge" points="412,102 412,130" marker-start="url(#class-aggregation)" /><rect class="edge-label-bg" x="371" y="103" width="82" height="27" rx="4" ry="4" /><text class="edge-label" x="412" y="116" text-anchor="middle" dominant-baseline="middle">aggregation</text><polyline class="edge" points="542,102 542,130" marker-end="url(#class-arrow)" /><rect class="edge-label-bg" x="501" y="103" width="82" height="27" rx="4" ry="4" /><text class="edge-label" x="542" y="116" text-anchor="middle" dominant-baseline="middle">association</text><polyline class="edge" points="672,102 672,130" stroke-dasharray="6 4" marker-end="url(#class-arrow)" /><rect class="edge-label-bg" x="634" y="103" width="76" height="27" rx="4" ry="4" /><text class="edge-label" x="672" y="116" text-anchor="middle" dominant-baseline="middle">dependency</text><path class="edge" d="M802 102 L904 102 Q914 102 914 112 L914 120 Q914 130 904 130 L802 130" stroke-dasharray="6 4" marker-end="url(#class-inherit)" /><rect class="edge-label-bg" x="873" y="103" width="82" height="27" rx="4" ry="4" /><text class="edge-label" x="914" y="116" text-anchor="middle" dominant-baseline="middle">realization</text><rect class="node-shape" x="92" y="40" width="120" height="62" rx="0" /><rect class="node-header" x="92" y="40" width="120" height="32" rx="0" /><line class="node-divider" x1="92" y1="72" x2="212" y2="72" /><text class="label class-header-text" x="152" y="56" text-anchor="middle" dominant-baseline="middle">A</text><text class="class-row" x="152" y="86" text-anchor="middle">(no attributes)</text><rect class="node-shape" x="92" y="130" width="120" height="62" rx="0" /><rect class="node-header" x="92" y="130" width="120" height="32" rx="0" /><line class="node-divider" x1="92" y1="162" x2="212" y2="162" /><text class="label class-header-text" x="152" y="146" text-anchor="middle" dominant-baseline="middle">B</text><text class="class-row" x="152" y="176" text-anchor="middle">(no attributes)</text><rect class="node-shape" x="222" y="40" width="120" height="62" rx="0" /><rect class="node-header" x="222" y="40" width="120" height="32" rx="0" /><line class="node-divider" x1="222" y1="72" x2="342" y2="72" /><text class="label class-header-text" x="282" y="56" text-anchor="middle" dominant-baseline="middle">C</text><text class="class-row" x="282" y="86" text-anchor="middle">(no attributes)</text><rect class="node-shape" x="222" y="130" width="120" height="62" rx="0" /><rect class="node-header" x="222" y="130" width="120" height="32" rx="0" /><line class="node-divider" x1="222" y1="162" x2="342" y2="162" /><text class="label class-header-text" x="282" y="146" text-anchor="middle" dominant-baseline="middle">D</text><text class="class-row" x="282" y="176" text-anchor="middle">(no attributes)</text><rect class="node-shape" x="352" y="40" width="120" height="62" rx="0" /><rect class="node-header" x="352" y="40" width="120" height="32" rx="0" /><line class="node-divider" x1="352" y1="72" x2="472" y2="72" /><text class="label class-header-text" x="412" y="56" text-anchor="middle" dominant-baseline="middle">E</text><text class="class-row" x="412" y="86" text-anchor="middle">(no attributes)</text><rect class="node-shape" x="352" y="130" width="120" height="62" rx="0" /><rect class="node-header" x="352" y="130" width="120" height="32" rx="0" /><line class="node-divider" x1="352" y1="162" x2="472" y2="162" /><text class="label class-header-text" x="412" y="146" text-anchor="middle" dominant-baseline="middle">F</text><text class="class-row" x="412" y="176" text-anchor="middle">(no attributes)</text><rect class="node-shape" x="482" y="40" width="120" height="62" rx="0" /><rect class="node-header" x="482" y="40" width="120" height="32" rx="0" /><line class="node-divider" x1="482" y1="72" x2="602" y2="72" /><text class="label class-header-text" x="542" y="56" text-anchor="middle" dominant-baseline="middle">G</text><text class="class-row" x="542" y="86" text-anchor="middle">(no attributes)</text><rect class="node-shape" x="482" y="130" width="120" height="62" rx="0" /><rect class="node-header" x="482" y="130" width="120" height="32" rx="0" /><line class="node-divider" x1="482" y1="162" x2="602" y2="162" /><text class="label class-header-text" x="542" y="146" text-anchor="middle" dominant-baseline="middle">H</text><text class="class-row" x="542" y="176" text-anchor="middle">(no attributes)</text><rect class="node-shape" x="612" y="40" width="120" height="62" rx="0" /><rect class="node-header" x="612" y="40" width="120" height="32" rx="0" /><line class="node-divider" x1="612" y1="72" x2="732" y2="72" /><text class="label class-header-text" x="672" y="56" text-anchor="middle" dominant-baseline="middle">I</text><text class="class-row" x="672" y="86" text-anchor="middle">(no attributes)</text><rect class="node-shape" x="612" y="130" width="120" height="62" rx="0" /><rect class="node-header" x="612" y="130" width="120" height="32" rx="0" /><line class="node-divider" x1="612" y1="162" x2="732" y2="162" /><text class="label class-header-text" x="672" y="146" text-anchor="middle" dominant-baseline="middle">J</text><text class="class-row" x="672" y="176" text-anchor="middle">(no attributes)</text><rect class="node-shape" x="742" y="40" width="120" height="62" rx="0" /><rect class="node-header" x="742" y="40" width="120" height="32" rx="0" /><line class="node-divider" x1="742" y1="72" x2="862" y2="72" /><text class="label class-header-text" x="802" y="56" text-anchor="middle" dominant-baseline="middle">K</text><text class="class-row" x="802" y="86" text-anchor="middle">(no attributes)</text><rect class="node-shape" x="742" y="130" width="120" height="62" rx="0" /><rect class="node-header" x="742" y="130" width="120" height="32" rx="0" /><line class="node-divider" x1="742" y1="162" x2="862" y2="162" /><text class="label class-header-text" x="802" y="146" text-anchor="middle" dominant-baseline="middle">L</text><text class="class-row" x="802" y="176" text-anchor="middle">(no attributes)</text></svg>