<svg xmlns="http://www.w3.org/2000/svg" width="368" height="687" viewBox="0 0 368 687" style="--bg:#FFFFFF;--fg:#27272A;background:var(--bg)"><style>@import url('https://fonts.googleapis.com/css2?family=Inter:wght@400;500;600;700&amp;display=swap');text{font-family:'Inter',system-ui,sans-serif}svg{--_text:var(--fg);--_text-sec:var(--muted,color-mix(in srgb,var(--fg) 60%,var(--bg)));--_text-muted:var(--muted,color-mix(in srgb,var(--fg) 40%,var(--bg)));--_text-faint:color-mix(in srgb,var(--fg) 25%,var(--bg));--_line:var(--line,color-mix(in srgb,var(--fg) 30%,var(--bg)));--_arrow:var(--accent,color-mix(in srgb,var(--fg) 50%,var(--bg)));--_node-fill:var(--surface,color-mix(in srgb,var(--fg) 3%,var(--bg)));--_node-stroke:var(--border,color-mix(in srgb,var(--fg) 20%,var(--bg)));--_group-fill:var(--bg);--_group-hdr:color-mix(in srgb,var(--fg) 5%,var(--bg));--_inner-stroke:color-mix(in srgb,var(--fg) 12%,var(--bg));--_key-badge:color-mix(in srgb,var(--fg) 10%,var(--bg));}</style><defs><marker id="arrowhead" markerWidth="8" markerHeight="4.8" refX="8" refY="2.4" orient="auto"><polygon points="0 0, 8 2.4, 0 4.8" fill="var(--_arrow)" /></marker><marker id="arrowhead-start" markerWidth="8" markerHeight="4.8" refX="0" refY="2.4" orient="auto-start-reverse"><polygon points="8 0, 0 2.4, 8 4.8" fill="var(--_arrow)" /></marker><marker id="seq-arrow" markerWidth="8" markerHeight="4.8" refX="8" refY="2.4" orient="auto-start-reverse"><polygon points="0 0, 8 2.4, 0 4.8" fill="var(--_arrow)" /></marker><marker id="seq-arrow-open" markerWidth="8" markerHeight="4.8" refX="8" refY="2.4" orient="auto-start-reverse"><polyline points="0 0, 8 2.4, 0 4.8" fill="none" stroke="var(--_arrow)" stroke-width="1" /></marker><marker id="class-arrow" markerWidth="8" markerHeight="6" refX="8" refY="3" orient="auto-start-reverse"><polyline points="0 0, 8 3, 0 6" fill="none" stroke="var(--_arrow)" stroke-width="1.5" /></marker><marker id="class-inherit" markerWidth="12" markerHeight="10" refX="12" refY="5" orient="auto-start-reverse"><polygon points="0 0, 12 5, 0 10" fill="var(--bg)" stroke="var(--_arrow)" stroke-width="1.5" /></marker><marker id="class-composition" markerWidth="12" markerHeight="10" refX="0" refY="5" orient="auto-start-reverse"><polygon points="6 0, 12 5, 6 10, 0 5" fill="var(--_arrow)" stroke="var(--_arrow)" stroke-width="1" /></marker><marker id="class-aggregation" markerWidth="12" markerHeight="10" refX="0" refY="5" orient="auto-start-reverse"><polygon points="6 0, 12 5, 6 10, 0 5" fill="var(--bg)" stroke="var(--_arrow)" stroke-width="1.5" /></marker><style>.node-shape{fill:var(--_node-fill);stroke:var(--_node-stroke);stroke-width:1.5}.node-header{fill:var(--_group-hdr);stroke:var(--_node-stroke);stroke-width:1}.node-divider{stroke:var(--_node-stroke);stroke-width:1}.edge{fill:none;stroke:var(--_line);stroke-width:0.75}.lifeline{fill:none;stroke:var(--_line);stroke-width:0.75;stroke-dasharray:6 4}.label{fill:var(--_text);font-size:13px}.class-header-text{font-weight:700}.class-row{fill:var(--_text-muted);font-size:11px}.edge-endpoint{fill:var(--_text-muted);font-size:11px}.edge-label-bg{fill:var(--bg);stroke:var(--_inner-stroke);stroke-width:0.5}.edge-label{fill:var(--_text-muted);font-size:11px}.state-start{fill:var(--_text)}.sequence-actor{fill:none;stroke:var(--_line);stroke-width:1.5}.sequence-block{fill:none;stroke:var(--_node-stroke);stroke-width:1}.sequence-block-tab{fill:var(--_group-hdr);stroke:var(--_node-stroke);stroke-width:1}.sequence-block-label{fill:var(--_text-sec);font-size:11px;font-weight:600}.sequence-divider{stroke:var(--_line);stroke-width:0.75;stroke-dasharray:6 4}.sequence-divider-label{fill:var(--_text-muted);font-size:11px}.sequence-activation{fill:var(--_node-fill);stroke:var(--_node-stroke);stroke-width:0.75}.sequence-note{fill:var(--_group-hdr);stroke:var(--_node-stroke);stroke-width:0.75}.sequence-note-fold{fill:var(--_inner-stroke)}.sequence-note-text{fill:var(--_text-muted);font-size:11px}</style></defs><rect width="368" height="687" fill="var(--bg)" /><rect class="group-outer" x="62" y="40" width="266" height="308" rx="0" ry="0" fill="var(--_group-fill)" stroke="var(--_node-stroke)" stroke-width="1" /><rect class="group-header" x="62" y="40" width="266" height="24" rx="0" ry="0" fill="var(--_group-hdr)" stroke="var(--_node-stroke)" stroke-width="1" /><text class="group-label" x="70" y="52" dominant-baseline="middle" text-anchor="start" fill="var(--_text-sec)">CI Pipeline</text><polyline class="edge" points="130,120 130,166" marker-end="url(#arrowhead)" /><polyline class="edge" points="130,210 130,292" marker-end="url(#arrowhead)" /><rect class="edge-label-bg" x="113" y="238" width="34" height="27" rx="4" ry="4" /><text class="edge-label" x="130" y="251" text-anchor="middle" dominant-baseline="middle">Yes</text><polyline class="edge" points="130,210 260,292 266,292" marker-end="url(#arrowhead)" /><rect class="edge-label-bg" x="182" y="239" width="28" height="27" rx="4" ry="4" /><text class="edge-label" x="196" y="252" text-anchor="middle" dominant-baseline="middle">No</text><polyline class="edge" points="254,292 260,292 130,120" stroke-dasharray="4 4" marker-end="url(#arrowhead)" /><polyline class="edge" points="130,336 130,382" marker-end="url(#arrowhead)" /><polyline class="edge" points="130,426 130,472" marker-end="url(#arrowhead)" /><polyline class="edge" points="130,516 130,553" marker-end="url(#arrowhead)" /><rect class="edge-label-bg" x="113" y="521" width="34" height="27" rx="4" ry="4" /><text class="edge-label" x="130" y="534" text-anchor="middle" dominant-baseline="middle">Yes</text><path class="edge" d="M130 472 L233 472 Q243 472 243 462 L243 344 Q243 336 251 336 L260 336" marker-end="url(#arrowhead)" /><rect class="edge-label-bg" x="229" y="439" width="28" height="27" rx="4" ry="4" /><text class="edge-label" x="243" y="452" text-anchor="middle" dominant-baseline="middle">No</text><rect class="node-shape" x="82" y="76" width="96" height="44" rx="0" ry="0" /><text class="label" x="130" y="98" text-anchor="middle" dominant-baseline="middle">Push Code</text><polygon class="node-shape" points="130,166 186,188 130,210 74,188" /><text class="label" x="130" y="188" text-anchor="middle" dominant-baseline="middle">Tests Pass?</text><rect class="node-shape" x="74" y="292" width="112" height="44" rx="0" ry="0" /><text class="label" x="130" y="314" text-anchor="middle" dominant-baseline="middle">Build Image</text><rect class="node-shape" x="204" y="292" width="112" height="44" rx="0" ry="0" /><text class="label" x="260" y="314" text-anchor="middle" dominant-baseline="middle">Fix &amp; Retry</text><rect class="node-shape" x="62" y="382" width="136" height="44" rx="22" ry="22" /><text class="label" x="130" y="404" text-anchor="middle" dominant-baseline="middle">Deploy Staging</text><polygon class="node-shape" points="130,472 190,494 130,516 70,494" /><text class="label" x="130" y="494" text-anchor="middle" dominant-baseline="middle">QA Approved?</text><circle class="node-shape" cx="130" cy="600" r="47" /><text class="label" x="130" y="600" text-anchor="middle" dominant-baseline="middle">Production</text></svg>