<svg xmlns="http://www.w3.org/2000/svg" width="1012" height="262" viewBox="0 0 1012 262" style="--bg:#FFFFFF;--fg:#27272A"><style>@import url('https://fonts.googleapis.com/css2?family=Inter:wght@400;500;600;700&amp;display=swap');text{font-family:'Inter',system-ui,sans-serif}svg{--_text:var(--fg);--_text-sec:var(--muted,color-mix(in srgb,var(--fg) 60%,var(--bg)));--_text-muted:var(--muted,color-mix(in srgb,var(--fg) 40%,var(--bg)));--_text-faint:color-mix(in srgb,var(--fg) 25%,var(--bg));--_line:var(--line,color-mix(in srgb,var(--fg) 30%,var(--bg)));--_arrow:var(--accent,color-mix(in srgb,var(--fg) 50%,var(--bg)));--_node-fill:var(--surface,color-mix(in srgb,var(--fg) 3%,var(--bg)));--_node-stroke:var(--border,color-mix(in srgb,var(--fg) 20%,var(--bg)));--_group-fill:var(--bg);--_group-hdr:color-mix(in srgb,var(--fg) 5%,var(--bg));--_inner-stroke:color-mix(in srgb,var(--fg) 12%,var(--bg));--_key-badge:color-mix(in srgb,var(--fg) 10%,var(--bg));}</style><defs><marker id="arrowhead" markerWidth="8" markerHeight="4.8" refX="8" refY="2.4" orient="auto"><polygon points="0 0, 8 2.4, 0 4.8" fill="var(--_arrow)" /></marker><marker id="arrowhead-start" markerWidth="8" markerHeight="4.8" refX="0" refY="2.4" orient="auto-start-reverse"><polygon points="8 0, 0 2.4, 8 4.8" fill="var(--_arrow)" /></marker><marker id="seq-arrow" markerWidth="8" markerHeight="4.8" refX="8" refY="2.4" orient="auto-start-reverse"><polygon points="0 0, 8 2.4, 0 4.8" fill="var(--_arrow)" /></marker><marker id="seq-arrow-open" markerWidth="8" markerHeight="4.8" refX="8" refY="2.4" orient="auto-start-reverse"><polyline points="0 0, 8 2.4, 0 4.8" fill="none" stroke="var(--_arrow)" stroke-width="1" /></marker><marker id="class-arrow" markerWidth="8" markerHeight="6" refX="8" refY="3" orient="auto-start-reverse"><polyline points="0 0, 8 3, 0 6" fill="none" stroke="var(--_arrow)" stroke-width="1.5" /></marker><marker id="class-inherit" markerWidth="12" markerHeight="10" refX="12" refY="5" orient="auto-start-reverse"><polygon points="0 0, 12 5, 0 10" fill="var(--bg)" stroke="var(--_arrow)" stroke-width="1.5" /></marker><marker id="class-composition" markerWidth="12" markerHeight="10" refX="0" refY="5" orient="auto-start-reverse"><polygon points="6 0, 12 5, 6 10, 0 5" fill="var(--_arrow)" stroke="var(--_arrow)" stroke-width="1" /></marker><marker id="class-aggregation" markerWidth="12" markerHeight="10" refX="0" refY="5" orient="auto-start-reverse"><polygon points="6 0, 12 5, 6 10, 0 5" fill="var(--bg)" stroke="var(--_arrow)" stroke-width="1.5" /></marker><style>.node-shape{fill:var(--_node-fill);stroke:var(--_node-stroke);stroke-width:1.5}.node-header{fill:var(--_group-hdr);stroke:var(--_node-stroke);stroke-width:1}.node-divider{stroke:var(--_node-stroke);stroke-width:1}.edge{fill:none;stroke:var(--_line);stroke-width:0.75}.lifeline{fill:none;stroke:var(--_line);stroke-width:0.75;stroke-dasharray:6 4}.label{fill:var(--_text);font-size:13px}.class-header-text{font-weight:700}.class-row{fill:var(--_text-muted);font-size:11px}.edge-endpoint{fill:var(--_text-muted);font-size:11px}.edge-label-bg{fill:var(--bg);stroke:var(--_inner-stroke);stroke-width:0.5}.edge-label{fill:var(--_text-muted);font-size:11px}.state-start{fill:var(--_text)}.sequence-actor{fill:none;stroke:var(--_line);stroke-width:1.5}.sequence-block{fill:none;stroke:var(--_node-stroke);stroke-width:1}.sequence-block-tab{fill:var(--_group-hdr);stroke:var(--_node-stroke);stroke-width:1}.sequence-block-label{fill:var(--_text-sec);font-size:11px;font-weight:600}.sequence-divider{stroke:var(--_line);stroke-width:0.75;stroke-dasharray:6 4}.sequence-divider-label{fill:var(--_text-muted);font-size:11px}.sequence-activation{fill:var(--_node-fill);stroke:var(--_node-stroke);stroke-width:0.75}.sequence-note{fill:var(--_group-hdr);stroke:var(--_node-stroke);stroke-width:0.75}.sequence-note-fold{fill:var(--_inner-stroke)}.sequence-note-text{fill:var(--_text-muted);font-size:11px}</style></defs><polyline class="edge" points="62,110 170,110" marker-end="url(#arrowhead)" /><polyline class="edge" points="240,110 300,110" marker-end="url(#arrowhead)" /><rect class="edge-label-bg" x="253" y="97" width="34" height="27" rx="4" ry="4" /><text class="edge-label" x="270" y="110" text-anchor="middle" dominant-baseline="middle">DSL</text><polyline class="edge" points="370,110 430,110" marker-end="url(#arrowhead)" /><rect class="edge-label-bg" x="383" y="97" width="34" height="27" rx="4" ry="4" /><text class="edge-label" x="400" y="110" text-anchor="middle" dominant-baseline="middle">AST</text><polyline class="edge" points="502,110 560,110" marker-end="url(#arrowhead)" /><rect class="edge-label-bg" x="505" y="97" width="52" height="27" rx="4" ry="4" /><text class="edge-label" x="531" y="110" text-anchor="middle" dominant-baseline="middle">Vector</text><polyline class="edge" points="502,110 560,200" marker-end="url(#arrowhead)" /><rect class="edge-label-bg" x="511" y="142" width="40" height="27" rx="4" ry="4" /><text class="edge-label" x="531" y="155" text-anchor="middle" dominant-baseline="middle">Text</text><polyline class="edge" points="630,110 690,110" marker-end="url(#arrowhead)" /><polyline class="edge" points="630,200 690,110" marker-end="url(#arrowhead)" /><polyline class="edge" points="760,110 820,110" marker-end="url(#arrowhead)" /><polyline class="edge" points="892,110 950,110" marker-end="url(#arrowhead)" /><circle class="state-start" cx="51" cy="110" r="9" fill="var(--_text)" stroke="none" /><rect class="node-shape" x="170" y="88" width="70" height="44" rx="6" ry="6" /><text class="label" x="205" y="110" text-anchor="middle" dominant-baseline="middle">Input</text><rect class="node-shape" x="300" y="88" width="70" height="44" rx="6" ry="6" /><text class="label" x="335" y="110" text-anchor="middle" dominant-baseline="middle">Parse</text><rect class="node-shape" x="430" y="88" width="72" height="44" rx="6" ry="6" /><text class="label" x="466" y="110" text-anchor="middle" dominant-baseline="middle">Layout</text><rect class="node-shape" x="560" y="88" width="70" height="44" rx="6" ry="6" /><text class="label" x="595" y="110" text-anchor="middle" dominant-baseline="middle">SVG</text><rect class="node-shape" x="560" y="178" width="70" height="44" rx="6" ry="6" /><text class="label" x="595" y="200" text-anchor="middle" dominant-baseline="middle">ASCII</text><rect class="node-shape" x="690" y="88" width="70" height="44" rx="6" ry="6" /><text class="label" x="725" y="110" text-anchor="middle" dominant-baseline="middle">Theme</text><rect class="node-shape" x="820" y="88" width="72" height="44" rx="6" ry="6" /><text class="label" x="856" y="110" text-anchor="middle" dominant-baseline="middle">Output</text><circle class="node-shape" cx="961" cy="110" r="9" fill="none" stroke="var(--_text)" stroke-width="1.5" /><circle class="state-start" cx="961" cy="110" r="5" fill="var(--_text)" stroke="none" /></svg>